<svg width="22" height="29" viewBox="0 0 22 29" fill="none" xmlns="http://www.w3.org/2000/svg">
<path d="M0.68 29L0.68 25.64C0.68 23.6933 1 22.08 1.64 20.8C2.28 19.4933 3.2 18.4267 4.4 17.6C5.62667 16.7467 7.12 16.0533 8.88 15.52L11.56 14.68C12.5467 14.36 13.3733 13.9733 14.04 13.52C14.7067 13.04 15.2133 12.4667 15.56 11.8C15.9333 11.1333 16.12 10.3733 16.12 9.52V9.36C16.12 8.02667 15.6667 6.97333 14.76 6.2C13.8533 5.4 12.6133 5 11.04 5C9.49333 5 8.24 5.42667 7.28 6.28C6.34667 7.10667 5.88 8.30667 5.88 9.88V10.6H0.76V9.96C0.76 7.93333 1.21333 6.21333 2.12 4.8C3.02667 3.38667 4.25333 2.30666 5.8 1.56C7.37333 0.813331 9.12 0.439998 11.04 0.439998C12.96 0.439998 14.6933 0.813331 16.24 1.56C17.7867 2.28 19 3.30667 19.88 4.64C20.7867 5.94667 21.24 7.49333 21.24 9.28V9.68C21.24 11.4667 20.8667 12.9867 20.12 14.24C19.4 15.4667 18.4133 16.48 17.16 17.28C15.9067 18.0533 14.48 18.6933 12.88 19.2L10.32 20C9.17333 20.3467 8.28 20.7333 7.64 21.16C7 21.56 6.54667 22.0133 6.28 22.52C6.04 23 5.92 23.5867 5.92 24.28V24.44L21 24.44V29L0.68 29Z" fill="#FCF8E9"/>
</svg>
