<svg width="22" height="29" viewBox="0 0 22 29" fill="none" xmlns="http://www.w3.org/2000/svg">
<path d="M11.16 28.56C9.05333 28.56 7.18667 28.1867 5.56 27.44C3.93333 26.6933 2.65333 25.6267 1.72 24.24C0.813333 22.8267 0.36 21.16 0.36 19.24V18.52H5.48V19.08C5.48 20.5733 6 21.7733 7.04 22.68C8.08 23.56 9.45333 24 11.16 24C12.8933 24 14.2267 23.5867 15.16 22.76C16.12 21.9333 16.6 20.8933 16.6 19.64V19.24C16.6 18.3867 16.3867 17.6933 15.96 17.16C15.5333 16.6267 14.96 16.24 14.24 16C13.52 15.7333 12.7067 15.6 11.8 15.6H6.2L6.2 10L15.24 5.2V4.56L1.08 4.56L1.08 -1.90735e-06L20.92 -1.90735e-06V6.8L12.48 11.28V11.92H13.96C15.2133 11.92 16.4267 12.1733 17.6 12.68C18.8 13.1867 19.7867 13.9733 20.56 15.04C21.3333 16.08 21.72 17.44 21.72 19.12V19.6C21.72 21.4133 21.28 23 20.4 24.36C19.52 25.6933 18.28 26.7333 16.68 27.48C15.1067 28.2 13.2667 28.56 11.16 28.56Z" fill="#FCF8E9"/>
</svg>
