<svg width="32" height="32" viewBox="0 0 32 32" fill="none" xmlns="http://www.w3.org/2000/svg">
<g clip-path="url(#clip0_29_977)">
<path d="M16 0C7.416 0 0.457153 6.95885 0.457153 15.5429C0.457153 22.8318 5.47563 28.9483 12.2455 30.6281V20.2928H9.04054V15.5429H12.2455V13.4962C12.2455 8.20601 14.6397 5.75397 19.8335 5.75397C20.8183 5.75397 22.5174 5.94732 23.2125 6.14005V10.4454C22.8457 10.4069 22.2084 10.3876 21.417 10.3876C18.8686 10.3876 17.8838 11.3531 17.8838 13.863V15.5429H22.9607L22.0885 20.2928H17.8838V30.9719C25.58 30.0425 31.5435 23.4896 31.5435 15.5429C31.5429 6.95885 24.584 0 16 0Z" fill="white"/>
</g>
<defs>
<clipPath id="clip0_29_977">
<rect width="31.0857" height="31.0857" fill="white" transform="translate(0.457153)"/>
</clipPath>
</defs>
</svg>
