<svg width="429" height="418" viewBox="0 0 429 418" fill="none" xmlns="http://www.w3.org/2000/svg">
<path d="M212.149 253.308C212.051 256.743 211.756 260.17 211.265 263.572C210.623 265.539 166.489 266.08 67.4094 268.08C67.4094 268.08 83.5211 297.773 116.102 299.47C135.711 300.49 153.523 280.992 160.786 271.811L156.504 342.612C156.504 342.612 264.673 350.136 291.41 329.14L282.592 287.007C286.661 297.079 294.744 309.966 309.771 311.715C316.718 312.504 323.754 311.418 330.114 308.576C336.473 305.734 341.913 301.244 345.84 295.595L212.149 253.308Z" fill="#024751"/>
<path d="M416.584 144.317C414.075 139.907 252.983 92.7589 250.124 94.6524C245.94 97.428 195.913 247.013 198.423 248.476C200.933 249.939 363.566 300.896 366.577 299.426C369.588 297.957 419.094 148.725 416.584 144.317Z" fill="#00D47E"/>
<path d="M27.6973 177.101C27.6973 177.101 26.9221 165.587 31.6909 165.098C31.6909 165.098 29.9543 107.859 32.2027 104.267C34.4512 100.674 204.11 100.348 204.11 100.348C204.11 100.348 223.854 95.1229 228.205 91.0391C232.225 97.5968 238.212 102.791 245.356 105.92C245.356 105.92 205.325 218.905 199.845 242.748C199.845 242.748 238.848 199.276 290.337 218.416L294.295 205.189C294.295 205.189 282.5 197.18 285.427 176.528C285.427 176.528 276.339 171.038 278.641 166.731C281.77 160.879 291.723 166.894 291.723 166.894C291.723 166.894 300.792 141.205 322.908 146.83C333.197 149.446 341.456 162.273 337.966 178.654C337.966 178.654 349.594 182.121 347.921 187.695C346.249 193.269 337.546 192.12 337.546 192.12C337.546 192.12 330.52 211.314 313.621 211.885L310.777 224.134C310.777 224.134 365.071 235.076 369.337 291.169C369.337 291.169 367.68 298.977 366.243 299.738C364.806 300.499 211.849 253.277 211.849 253.277C211.849 253.277 212.079 263.518 211.057 263.976C206.704 265.934 46.8326 268.1 36.6268 266.016L32.8623 201.575C32.8623 201.575 25.0612 205.005 26.7529 199.002C26.7529 199.002 20.5429 199.37 23.1126 193.43C23.1126 193.43 18.7206 191.777 21.9262 186.387C21.9284 186.387 16.3394 181.651 27.6973 177.101Z" fill="white"/>
<path d="M211.156 180.764C213.826 180.913 216.505 180.739 219.132 180.246L212.258 200.872L211.156 180.764Z" fill="#024751"/>
<path d="M397.447 211.004C397.447 211.004 400.835 212.72 397.447 221.233C397.447 221.233 409.439 229.315 401.25 231.52C401.25 231.52 403.722 237.163 398.387 236.971C398.387 236.971 400.145 242.256 393.995 240.524C393.995 240.524 395.25 246.463 385.715 239.819C376.179 233.175 379.875 231.75 383.145 232.134C383.145 232.134 377.749 226.372 385.342 226.987C385.342 226.987 379.946 221.601 387.601 222.092C387.601 222.092 383.522 215.724 394.439 220.042L397.447 211.004Z" fill="white"/>
<path d="M334.702 172.873C334.502 172.873 334.306 172.82 334.135 172.718C333.965 172.616 333.827 172.47 333.736 172.296C330.295 165.74 322.582 168.743 322.254 168.873C321.988 168.98 321.689 168.98 321.423 168.873C321.157 168.765 320.946 168.559 320.836 168.299C320.725 168.039 320.725 167.747 320.836 167.488C320.946 167.228 321.157 167.022 321.423 166.914C324.824 165.537 332.182 164.682 335.668 171.33C335.753 171.491 335.794 171.671 335.786 171.853C335.778 172.128 335.66 172.388 335.457 172.579C335.255 172.77 334.983 172.875 334.702 172.873Z" fill="#129761"/>
<path d="M304.944 195.745C304.736 195.551 304.616 195.285 304.609 195.004C304.603 194.723 304.711 194.452 304.91 194.249C305.109 194.046 305.382 193.928 305.669 193.922C305.957 193.916 306.235 194.021 306.443 194.215C306.914 194.604 307.479 194.87 308.085 194.987C308.69 195.104 309.316 195.068 309.904 194.884C310.175 194.811 310.466 194.843 310.713 194.976C310.96 195.108 311.144 195.329 311.227 195.593C311.31 195.855 311.285 196.139 311.158 196.384C311.031 196.629 310.812 196.817 310.546 196.907C309.589 197.205 308.57 197.254 307.587 197.05C306.605 196.847 305.694 196.397 304.944 195.745Z" fill="#129761"/>
<path d="M340.914 187.693C340.726 187.693 340.54 187.645 340.377 187.554C340.213 187.463 340.076 187.332 339.98 187.174C339.884 187.016 339.832 186.836 339.829 186.652C339.826 186.468 339.873 186.286 339.963 186.125C340.082 185.909 340.275 185.741 340.507 185.649L341.805 185.139C342.072 185.034 342.371 185.037 342.636 185.147C342.901 185.257 343.111 185.465 343.218 185.726C343.326 185.987 343.323 186.279 343.21 186.537C343.097 186.796 342.884 187 342.617 187.105C341.342 187.607 341.212 187.693 340.914 187.693Z" fill="#129761"/>
<path d="M283.984 170.617C283.828 170.341 283.631 170.089 283.4 169.869C283.209 169.675 283.1 169.417 283.096 169.148C283.092 168.879 283.193 168.618 283.379 168.419C283.565 168.22 283.821 168.097 284.096 168.075C284.371 168.053 284.644 168.134 284.86 168.302C285.282 168.689 285.638 169.141 285.912 169.639C285.996 169.794 286.04 169.966 286.039 170.141C286.038 170.317 285.992 170.489 285.906 170.642C285.82 170.796 285.695 170.926 285.545 171.021C285.394 171.116 285.221 171.172 285.042 171.186C284.828 171.203 284.614 171.158 284.426 171.057C284.238 170.956 284.084 170.803 283.984 170.617Z" fill="#129761"/>
<path d="M261.288 225.929C261.122 225.93 260.958 225.893 260.809 225.821C260.66 225.75 260.53 225.646 260.428 225.518C260.326 225.39 260.256 225.241 260.223 225.082C260.19 224.923 260.194 224.759 260.236 224.602L261.125 221.258C261.209 220.999 261.392 220.781 261.636 220.65C261.88 220.519 262.166 220.483 262.435 220.552C262.705 220.62 262.937 220.787 263.085 221.017C263.232 221.248 263.283 221.525 263.228 221.791L262.339 225.135C262.279 225.363 262.143 225.564 261.953 225.708C261.763 225.852 261.529 225.93 261.288 225.929Z" fill="#129761"/>
<path d="M273.249 228.067L274.628 225.407C274.728 225.222 274.88 225.069 275.066 224.967C275.253 224.864 275.466 224.817 275.68 224.83C275.822 224.84 275.961 224.877 276.089 224.939C276.216 225.002 276.33 225.089 276.423 225.194C276.516 225.3 276.586 225.423 276.63 225.555C276.675 225.688 276.691 225.828 276.68 225.967C276.669 226.106 276.631 226.241 276.566 226.366L275.187 229.026C275.087 229.211 274.935 229.364 274.749 229.467C274.562 229.569 274.349 229.616 274.136 229.603C273.993 229.594 273.854 229.556 273.727 229.494C273.599 229.431 273.485 229.344 273.392 229.239C273.299 229.133 273.229 229.01 273.185 228.878C273.141 228.745 273.124 228.605 273.136 228.466C273.146 228.327 273.185 228.192 273.249 228.067Z" fill="#129761"/>
<path d="M283.128 232.335C282.953 232.335 282.78 232.294 282.625 232.215C282.469 232.136 282.336 232.022 282.236 231.882C282.136 231.741 282.072 231.58 282.05 231.41C282.027 231.24 282.048 231.068 282.108 230.908L283.363 227.601C283.412 227.471 283.487 227.35 283.584 227.248C283.682 227.146 283.799 227.063 283.929 227.006C284.058 226.947 284.198 226.914 284.341 226.909C284.483 226.903 284.625 226.925 284.759 226.974C284.893 227.022 285.015 227.096 285.12 227.191C285.224 227.285 285.308 227.4 285.368 227.526C285.428 227.652 285.463 227.789 285.468 227.928C285.474 228.068 285.45 228.207 285.4 228.337L284.145 231.644C284.068 231.847 283.93 232.022 283.748 232.146C283.566 232.27 283.349 232.336 283.128 232.335Z" fill="#129761"/>
<path d="M229.794 232.335C229.532 232.333 229.279 232.24 229.082 232.071C228.885 231.903 228.756 231.671 228.719 231.417C228.696 231.249 228.715 231.078 228.773 230.918L229.777 228.188C229.824 228.055 229.897 227.931 229.991 227.825C230.137 227.667 230.327 227.556 230.537 227.503C230.747 227.451 230.969 227.46 231.173 227.53C231.309 227.578 231.434 227.652 231.54 227.747C231.646 227.842 231.732 227.957 231.792 228.085C231.852 228.213 231.885 228.352 231.89 228.492C231.895 228.633 231.871 228.774 231.82 228.905L230.816 231.622C230.742 231.83 230.604 232.01 230.421 232.137C230.238 232.265 230.019 232.334 229.794 232.335Z" fill="#129761"/>
<path d="M238.702 233.56C238.427 233.558 238.162 233.454 237.962 233.27C237.761 233.085 237.639 232.833 237.621 232.565C237.609 232.387 237.644 232.208 237.722 232.047L238.977 229.457C239.101 229.204 239.323 229.008 239.594 228.913C239.865 228.819 240.163 228.832 240.424 228.951C240.683 229.073 240.882 229.29 240.979 229.554C241.076 229.819 241.062 230.11 240.94 230.364L239.685 232.954C239.596 233.135 239.457 233.287 239.283 233.395C239.109 233.502 238.908 233.559 238.702 233.56Z" fill="#129761"/>
<path d="M247.989 236.132C247.811 236.133 247.635 236.09 247.478 236.008C247.32 235.926 247.186 235.807 247.087 235.663C246.988 235.518 246.927 235.352 246.909 235.178C246.892 235.005 246.919 234.83 246.987 234.669L248.617 230.803C248.727 230.544 248.939 230.337 249.205 230.229C249.471 230.121 249.77 230.12 250.036 230.226C250.168 230.279 250.289 230.357 250.39 230.455C250.491 230.554 250.571 230.671 250.626 230.799C250.681 230.928 250.709 231.066 250.709 231.206C250.709 231.345 250.68 231.483 250.625 231.612L248.993 235.478C248.912 235.673 248.773 235.839 248.594 235.956C248.415 236.073 248.204 236.134 247.989 236.132Z" fill="#129761"/>
<path d="M257.401 238.469C257.226 238.47 257.054 238.429 256.899 238.35C256.744 238.271 256.611 238.156 256.512 238.016C256.411 237.876 256.346 237.715 256.323 237.545C256.301 237.376 256.322 237.204 256.384 237.044L257.262 234.715C257.331 234.513 257.462 234.337 257.637 234.209C257.811 234.081 258.022 234.009 258.24 234.001C258.385 233.995 258.529 234.017 258.664 234.066C258.8 234.115 258.924 234.189 259.03 234.285C259.189 234.431 259.299 234.62 259.347 234.827C259.394 235.034 259.377 235.251 259.298 235.449L258.42 237.775C258.343 237.978 258.203 238.153 258.021 238.277C257.839 238.401 257.623 238.468 257.401 238.469Z" fill="#129761"/>
<path d="M266.939 241.521C266.758 241.521 266.581 241.477 266.422 241.393C266.263 241.309 266.128 241.188 266.03 241.04C265.931 240.893 265.872 240.723 265.857 240.548C265.842 240.372 265.872 240.196 265.945 240.035L267.326 236.973C267.44 236.711 267.655 236.504 267.924 236.394C268.196 236.289 268.499 236.294 268.767 236.406C268.899 236.464 269.018 236.547 269.117 236.649C269.216 236.752 269.293 236.873 269.344 237.005C269.395 237.137 269.418 237.277 269.413 237.418C269.408 237.559 269.374 237.698 269.313 237.826L267.932 240.887C267.849 241.077 267.71 241.237 267.533 241.35C267.356 241.463 267.15 241.522 266.939 241.521Z" fill="#129761"/>
<path d="M276.727 245.032C276.47 245.033 276.221 244.944 276.025 244.782C275.828 244.619 275.698 244.394 275.657 244.146C275.628 243.982 275.64 243.814 275.691 243.655L276.821 240.144C276.856 240.004 276.921 239.872 277.01 239.757C277.1 239.643 277.213 239.547 277.342 239.477C277.471 239.408 277.613 239.364 277.76 239.349C277.907 239.334 278.055 239.348 278.196 239.389C278.337 239.432 278.468 239.502 278.58 239.596C278.692 239.69 278.784 239.805 278.849 239.934C278.914 240.063 278.951 240.204 278.959 240.348C278.966 240.492 278.944 240.636 278.892 240.771L277.764 244.282C277.696 244.499 277.559 244.689 277.372 244.824C277.186 244.959 276.96 245.032 276.727 245.032Z" fill="#129761"/>
<path d="M285.26 246.788C285.082 246.788 284.906 246.745 284.748 246.663C284.591 246.581 284.457 246.463 284.358 246.318C284.259 246.173 284.198 246.007 284.18 245.834C284.163 245.66 284.189 245.485 284.258 245.325L285.011 243.569C285.091 243.372 285.23 243.202 285.41 243.083C285.59 242.964 285.803 242.901 286.02 242.902C286.2 242.903 286.378 242.947 286.536 243.031C286.694 243.115 286.829 243.236 286.927 243.384C287.026 243.531 287.085 243.7 287.101 243.875C287.116 244.051 287.086 244.227 287.014 244.388L286.262 246.144C286.179 246.336 286.04 246.5 285.861 246.615C285.683 246.729 285.474 246.789 285.26 246.788Z" fill="#129761"/>
<path d="M277.858 263.445C277.692 263.445 277.528 263.408 277.38 263.337C277.231 263.266 277.1 263.163 276.999 263.035C276.897 262.908 276.827 262.759 276.793 262.601C276.759 262.442 276.763 262.278 276.804 262.122L277.684 258.761C277.745 258.521 277.889 258.31 278.092 258.162C278.295 258.015 278.544 257.941 278.797 257.954C279.05 257.966 279.29 258.064 279.477 258.23C279.664 258.396 279.786 258.621 279.821 258.865C279.839 259.006 279.827 259.149 279.787 259.286L278.909 262.646C278.85 262.874 278.714 263.077 278.524 263.221C278.333 263.366 278.099 263.445 277.858 263.445Z" fill="#129761"/>
<path d="M267.328 258.587L268.208 256.683C268.332 256.436 268.55 256.246 268.815 256.154C269.08 256.061 269.372 256.073 269.628 256.188C269.884 256.3 270.086 256.505 270.19 256.76C270.294 257.015 270.293 257.299 270.187 257.553L269.309 259.457C269.191 259.713 268.973 259.913 268.704 260.013C268.435 260.113 268.136 260.104 267.873 259.989C267.611 259.873 267.406 259.661 267.303 259.398C267.201 259.135 267.21 258.844 267.328 258.587Z" fill="#129761"/>
<path d="M256.272 256.585C256.095 256.587 255.921 256.545 255.764 256.464C255.608 256.384 255.474 256.267 255.375 256.123C255.277 255.98 255.215 255.816 255.195 255.645C255.175 255.473 255.198 255.3 255.262 255.139L256.39 252.322C256.496 252.06 256.704 251.85 256.968 251.738C257.232 251.625 257.531 251.618 257.799 251.72C257.932 251.77 258.054 251.846 258.157 251.943C258.26 252.039 258.343 252.155 258.4 252.283C258.457 252.41 258.487 252.548 258.49 252.687C258.492 252.827 258.466 252.965 258.414 253.095L257.283 255.912C257.204 256.111 257.065 256.282 256.885 256.402C256.705 256.522 256.491 256.586 256.272 256.585Z" fill="#129761"/>
<path d="M245.856 253.279C245.678 253.28 245.502 253.238 245.344 253.156C245.187 253.073 245.053 252.954 244.955 252.809C244.856 252.664 244.795 252.498 244.777 252.325C244.759 252.152 244.785 251.977 244.852 251.816L245.98 249.122C246.033 248.992 246.112 248.875 246.212 248.775C246.313 248.676 246.433 248.598 246.565 248.545C246.696 248.491 246.837 248.462 246.98 248.462C247.123 248.461 247.264 248.488 247.396 248.541C247.662 248.648 247.875 248.854 247.986 249.113C248.098 249.372 248.1 249.664 247.991 249.925L246.863 252.619C246.782 252.814 246.643 252.982 246.463 253.1C246.284 253.217 246.072 253.28 245.856 253.279Z" fill="#129761"/>
<path d="M234.938 250.591C234.754 250.592 234.572 250.547 234.411 250.46C234.251 250.373 234.115 250.247 234.019 250.094C233.921 249.942 233.865 249.769 233.855 249.59C233.845 249.411 233.881 249.233 233.961 249.072L235.46 246.01C235.52 245.883 235.606 245.768 235.712 245.674C235.818 245.579 235.942 245.506 236.077 245.459C236.212 245.412 236.356 245.392 236.499 245.4C236.643 245.407 236.783 245.443 236.912 245.504C237.042 245.564 237.159 245.648 237.255 245.753C237.35 245.858 237.423 245.981 237.469 246.114C237.516 246.246 237.535 246.386 237.526 246.526C237.518 246.665 237.481 246.802 237.417 246.927L235.918 249.989C235.83 250.17 235.691 250.322 235.517 250.429C235.344 250.535 235.143 250.592 234.938 250.591Z" fill="#129761"/>
<path d="M226.154 248.502C225.873 248.499 225.604 248.391 225.403 248.2C225.201 248.009 225.082 247.749 225.071 247.475C225.065 247.293 225.107 247.113 225.193 246.951L226.572 244.359C226.673 244.175 226.827 244.024 227.015 243.925C227.203 243.826 227.416 243.782 227.629 243.8C227.842 243.818 228.045 243.897 228.213 244.026C228.38 244.156 228.505 244.33 228.572 244.529C228.658 244.797 228.632 245.088 228.499 245.337L227.12 247.929C227.029 248.102 226.89 248.247 226.72 248.348C226.549 248.449 226.354 248.502 226.154 248.502Z" fill="#129761"/>
<path d="M215.237 245.91C214.962 245.908 214.698 245.805 214.498 245.621C214.297 245.437 214.175 245.187 214.156 244.919C214.144 244.742 214.177 244.564 214.254 244.403L215.509 241.769C215.567 241.64 215.651 241.524 215.756 241.427C215.861 241.33 215.985 241.255 216.12 241.205C216.255 241.155 216.399 241.132 216.544 241.138C216.688 241.143 216.83 241.176 216.961 241.236C217.092 241.296 217.209 241.38 217.307 241.484C217.404 241.589 217.478 241.711 217.527 241.844C217.575 241.977 217.595 242.118 217.586 242.259C217.578 242.4 217.541 242.537 217.477 242.664L216.222 245.297C216.134 245.48 215.995 245.634 215.821 245.743C215.646 245.851 215.444 245.909 215.237 245.91Z" fill="#129761"/>
<path d="M249.741 224.285C249.576 224.283 249.414 224.246 249.266 224.176C249.117 224.105 248.987 224.003 248.885 223.877C248.784 223.75 248.713 223.602 248.679 223.445C248.645 223.287 248.648 223.124 248.688 222.968L249.257 220.736C249.336 220.472 249.516 220.249 249.76 220.112C250.004 219.975 250.292 219.936 250.565 220.002C250.838 220.069 251.074 220.236 251.223 220.469C251.373 220.701 251.424 220.981 251.366 221.25L250.795 223.482C250.736 223.712 250.601 223.915 250.41 224.061C250.219 224.206 249.983 224.285 249.741 224.285Z" fill="#129761"/>
<path d="M313.745 239.991C313.566 239.99 313.391 239.946 313.234 239.865C313.077 239.783 312.943 239.665 312.843 239.521C312.744 239.376 312.682 239.21 312.664 239.037C312.645 238.864 312.671 238.689 312.738 238.528L314.117 235.161C314.224 234.9 314.433 234.691 314.697 234.58C314.962 234.469 315.261 234.465 315.528 234.57C315.796 234.674 316.01 234.878 316.124 235.136C316.237 235.394 316.241 235.686 316.134 235.947L314.755 239.316C314.675 239.514 314.536 239.685 314.356 239.805C314.176 239.925 313.963 239.99 313.745 239.991Z" fill="#129761"/>
<path d="M324.404 243.277C324.232 243.278 324.061 243.238 323.908 243.161C323.754 243.085 323.622 242.973 323.522 242.836C323.423 242.699 323.357 242.541 323.332 242.375C323.306 242.209 323.321 242.04 323.374 241.881L324.503 238.593C324.595 238.327 324.792 238.107 325.05 237.982C325.308 237.857 325.606 237.837 325.879 237.926C326.015 237.97 326.14 238.04 326.248 238.131C326.356 238.222 326.444 238.334 326.507 238.458C326.571 238.583 326.608 238.719 326.618 238.858C326.627 238.997 326.609 239.136 326.563 239.268L325.432 242.554C325.36 242.764 325.222 242.947 325.038 243.077C324.853 243.207 324.631 243.277 324.404 243.277Z" fill="#129761"/>
<path d="M335.325 246.787C335.158 246.788 334.993 246.75 334.843 246.678C334.694 246.605 334.563 246.499 334.462 246.369C334.361 246.239 334.292 246.087 334.261 245.927C334.229 245.766 334.236 245.601 334.28 245.443L335.285 241.932C335.362 241.662 335.546 241.432 335.797 241.294C336.047 241.156 336.344 241.121 336.621 241.196C336.898 241.272 337.133 241.451 337.275 241.696C337.416 241.941 337.452 242.23 337.375 242.5L336.372 246.012C336.308 246.234 336.171 246.43 335.982 246.57C335.793 246.71 335.562 246.786 335.325 246.787Z" fill="#129761"/>
<path d="M342.735 250.591C342.574 250.591 342.415 250.557 342.269 250.49C342.124 250.423 341.995 250.326 341.892 250.205C341.789 250.084 341.716 249.941 341.678 249.789C341.637 249.637 341.633 249.477 341.665 249.323L342.292 246.261C342.35 245.984 342.518 245.741 342.758 245.585C342.999 245.428 343.293 245.371 343.577 245.425C343.86 245.481 344.109 245.645 344.27 245.88C344.43 246.115 344.489 246.402 344.434 246.679L343.806 249.741C343.756 249.982 343.622 250.198 343.427 250.354C343.232 250.509 342.987 250.593 342.735 250.591Z" fill="#129761"/>
<path d="M301.574 251.931C301.314 251.931 301.063 251.841 300.866 251.676C300.669 251.511 300.539 251.282 300.501 251.032C300.475 250.866 300.49 250.696 300.544 250.537L302.043 246.127C302.144 245.872 302.341 245.665 302.594 245.548C302.847 245.431 303.136 245.413 303.402 245.498C303.67 245.582 303.893 245.765 304.024 246.008C304.155 246.251 304.184 246.534 304.105 246.798L302.606 251.207C302.534 251.419 302.395 251.603 302.21 251.733C302.025 251.862 301.802 251.932 301.574 251.931Z" fill="#129761"/>
<path d="M310.65 253.768C310.484 253.768 310.321 253.731 310.172 253.66C310.023 253.589 309.893 253.485 309.791 253.357C309.69 253.229 309.62 253.081 309.586 252.922C309.553 252.764 309.557 252.6 309.599 252.443L310.31 249.749C310.384 249.478 310.563 249.245 310.811 249.101C310.996 248.996 311.209 248.946 311.423 248.959C311.636 248.971 311.842 249.045 312.013 249.171C312.184 249.297 312.313 249.469 312.384 249.667C312.455 249.864 312.465 250.077 312.412 250.28L311.699 252.974C311.641 253.202 311.506 253.405 311.316 253.549C311.126 253.693 310.891 253.77 310.65 253.768Z" fill="#129761"/>
<path d="M320.899 256.585C320.73 256.586 320.564 256.547 320.413 256.473C320.186 256.361 320.006 256.175 319.904 255.947C319.803 255.719 319.787 255.463 319.858 255.225L320.863 251.918C320.959 251.666 321.149 251.458 321.396 251.337C321.643 251.217 321.927 251.192 322.192 251.269C322.457 251.345 322.682 251.517 322.821 251.75C322.961 251.982 323.005 252.258 322.944 252.52L321.94 255.827C321.874 256.046 321.736 256.238 321.548 256.374C321.361 256.512 321.133 256.586 320.899 256.585Z" fill="#129761"/>
<path d="M332.068 260.082C331.818 260.081 331.575 259.996 331.381 259.841C331.187 259.686 331.053 259.471 331.002 259.231C330.969 259.072 330.974 258.908 331.017 258.75L331.771 255.988C331.807 255.853 331.87 255.726 331.956 255.615C332.043 255.504 332.151 255.411 332.275 255.341C332.398 255.271 332.535 255.225 332.677 255.207C332.818 255.189 332.962 255.199 333.1 255.235C333.378 255.308 333.615 255.486 333.76 255.729C333.904 255.972 333.943 256.261 333.869 256.533L333.115 259.296C333.055 259.522 332.919 259.721 332.729 259.864C332.54 260.006 332.307 260.083 332.068 260.082Z" fill="#129761"/>
<path d="M341.73 263.444C341.561 263.447 341.393 263.41 341.241 263.337C341.089 263.264 340.956 263.157 340.855 263.024C340.752 262.892 340.683 262.739 340.652 262.576C340.622 262.413 340.631 262.245 340.679 262.086L341.683 258.723C341.719 258.585 341.783 258.456 341.871 258.343C341.96 258.231 342.072 258.137 342.199 258.069C342.455 257.93 342.757 257.897 343.039 257.975C343.178 258.014 343.308 258.081 343.42 258.17C343.533 258.26 343.626 258.37 343.694 258.495C343.762 258.621 343.803 258.758 343.816 258.899C343.828 259.04 343.812 259.182 343.767 259.317L342.763 262.679C342.699 262.899 342.564 263.092 342.378 263.23C342.191 263.368 341.964 263.443 341.73 263.444Z" fill="#129761"/>
<path d="M351.143 266.139C350.98 266.139 350.818 266.104 350.67 266.036C350.522 265.968 350.391 265.869 350.287 265.746C350.184 265.621 350.112 265.475 350.075 265.319C350.037 265.163 350.037 265.001 350.073 264.845L350.7 262.149C350.727 262.009 350.782 261.875 350.863 261.757C350.944 261.638 351.049 261.537 351.171 261.459C351.356 261.343 351.572 261.283 351.791 261.288C352.011 261.293 352.224 261.362 352.403 261.486C352.58 261.613 352.714 261.789 352.787 261.991C352.861 262.193 352.871 262.412 352.816 262.619L352.188 265.313C352.135 265.546 352.003 265.753 351.813 265.903C351.623 266.053 351.387 266.136 351.143 266.139Z" fill="#129761"/>
<path d="M358.043 271.038C357.877 271.038 357.713 271.001 357.564 270.93C357.415 270.858 357.285 270.755 357.183 270.626C357.082 270.498 357.012 270.349 356.979 270.19C356.945 270.032 356.95 269.868 356.992 269.711L357.746 266.889C357.78 266.753 357.842 266.625 357.928 266.512C358.014 266.399 358.122 266.304 358.245 266.232C358.369 266.16 358.506 266.112 358.648 266.092C358.791 266.072 358.936 266.079 359.075 266.114C359.215 266.149 359.346 266.211 359.46 266.296C359.575 266.382 359.67 266.489 359.741 266.611C359.813 266.733 359.859 266.868 359.877 267.008C359.895 267.147 359.885 267.289 359.846 267.424L359.095 270.246C359.032 270.472 358.895 270.672 358.705 270.815C358.516 270.958 358.283 271.036 358.043 271.038Z" fill="#129761"/>
<path d="M297.684 268.216C297.507 268.217 297.332 268.175 297.176 268.095C297.019 268.014 296.885 267.896 296.787 267.752C296.688 267.609 296.626 267.445 296.607 267.274C296.587 267.102 296.61 266.929 296.673 266.768L298.052 263.345C298.104 263.215 298.181 263.096 298.28 262.996C298.379 262.895 298.497 262.815 298.628 262.759C298.759 262.704 298.9 262.674 299.042 262.672C299.185 262.67 299.327 262.695 299.459 262.747C299.592 262.797 299.713 262.873 299.816 262.97C299.919 263.066 300.002 263.181 300.059 263.309C300.116 263.436 300.147 263.574 300.149 263.713C300.152 263.852 300.126 263.99 300.074 264.12L298.695 267.543C298.614 267.741 298.475 267.911 298.295 268.031C298.115 268.151 297.902 268.215 297.684 268.216Z" fill="#129761"/>
<path d="M308.154 271.326C307.978 271.326 307.804 271.283 307.648 271.203C307.492 271.123 307.359 271.007 307.259 270.865C307.16 270.723 307.097 270.559 307.076 270.389C307.056 270.218 307.078 270.045 307.141 269.884L308.34 266.854C308.391 266.724 308.468 266.606 308.567 266.506C308.665 266.406 308.783 266.325 308.913 266.27C309.043 266.214 309.183 266.184 309.325 266.181C309.467 266.178 309.608 266.203 309.741 266.254C309.874 266.303 309.995 266.377 310.099 266.472C310.202 266.567 310.285 266.682 310.343 266.808C310.401 266.935 310.433 267.071 310.437 267.21C310.441 267.349 310.417 267.487 310.366 267.616L309.167 270.649C309.086 270.848 308.947 271.018 308.766 271.139C308.586 271.26 308.373 271.325 308.154 271.326Z" fill="#129761"/>
<path d="M319.518 275.203C319.256 275.202 319.003 275.109 318.806 274.941C318.609 274.772 318.48 274.541 318.443 274.288C318.419 274.12 318.436 273.948 318.494 273.788L319.875 269.991C319.982 269.739 320.184 269.538 320.439 269.427C320.693 269.317 320.982 269.306 321.245 269.397C321.507 269.488 321.724 269.674 321.85 269.917C321.976 270.16 322.002 270.441 321.922 270.701L320.541 274.497C320.465 274.703 320.326 274.881 320.143 275.007C319.96 275.133 319.742 275.202 319.518 275.203Z" fill="#129761"/>
<path d="M329.055 278.51C328.793 278.508 328.541 278.415 328.343 278.247C328.146 278.079 328.017 277.847 327.98 277.594C327.956 277.426 327.974 277.255 328.032 277.095L329.413 273.299C329.472 273.134 329.571 272.986 329.703 272.868C329.835 272.749 329.996 272.665 330.169 272.622C330.343 272.579 330.525 272.579 330.698 272.622C330.872 272.664 331.032 272.749 331.165 272.867C331.323 273.008 331.435 273.191 331.488 273.394C331.54 273.597 331.531 273.81 331.46 274.008L330.079 277.803C330.003 278.009 329.864 278.187 329.681 278.313C329.498 278.44 329.279 278.508 329.055 278.51Z" fill="#129761"/>
<path d="M338.965 281.448C338.792 281.449 338.622 281.409 338.468 281.332C338.314 281.256 338.181 281.144 338.08 281.007C337.979 280.87 337.914 280.711 337.888 280.545C337.863 280.378 337.879 280.207 337.935 280.048L338.961 277.109C339.056 276.847 339.253 276.631 339.51 276.51C339.767 276.389 340.062 276.372 340.332 276.463C340.6 276.554 340.822 276.744 340.949 276.991C341.077 277.239 341.102 277.526 341.017 277.79L339.993 280.731C339.921 280.941 339.783 281.123 339.598 281.252C339.414 281.381 339.192 281.449 338.965 281.448Z" fill="#129761"/>
<path d="M349.386 284.634C349.219 284.633 349.055 284.595 348.905 284.523C348.756 284.452 348.625 284.348 348.523 284.22C348.422 284.09 348.353 283.94 348.32 283.78C348.288 283.62 348.294 283.455 348.336 283.298L349.214 280.113C349.292 279.844 349.475 279.616 349.724 279.478C349.973 279.339 350.267 279.302 350.544 279.373C350.82 279.448 351.054 279.625 351.198 279.866C351.341 280.108 351.382 280.394 351.311 280.665L350.433 283.85C350.369 284.074 350.233 284.272 350.044 284.413C349.855 284.555 349.624 284.632 349.386 284.634Z" fill="#129761"/>
<path d="M359.425 287.818C359.268 287.819 359.113 287.787 358.971 287.722C358.829 287.658 358.703 287.564 358.602 287.446C358.501 287.33 358.427 287.194 358.384 287.047C358.341 286.9 358.331 286.747 358.354 286.596L358.857 283.413C358.916 283.15 359.076 282.919 359.304 282.767C359.531 282.615 359.81 282.553 360.082 282.595C360.354 282.638 360.599 282.778 360.769 282.99C360.939 283.201 361.021 283.467 360.999 283.734L360.498 286.92C360.456 287.169 360.326 287.396 360.129 287.56C359.933 287.725 359.684 287.816 359.425 287.818Z" fill="#129761"/>
<path d="M236.823 113.165C236.675 113.166 236.529 113.136 236.394 113.08C236.258 113.023 236.136 112.94 236.034 112.835C234.597 111.241 232.628 110.194 230.476 109.88C228.323 109.566 226.127 110.005 224.274 111.119C224.032 111.266 223.741 111.313 223.463 111.252C223.185 111.191 222.943 111.025 222.789 110.791C222.635 110.557 222.581 110.274 222.64 110.002C222.698 109.73 222.864 109.491 223.101 109.337C225.388 107.988 228.084 107.454 230.729 107.826C233.374 108.197 235.806 109.452 237.611 111.376C237.757 111.527 237.854 111.716 237.891 111.92C237.928 112.124 237.903 112.334 237.818 112.524C237.735 112.714 237.596 112.877 237.419 112.991C237.242 113.105 237.035 113.166 236.823 113.165Z" fill="#129761"/>
<path d="M119.449 133.804C113.045 133.948 106.827 135.932 101.574 139.509C96.3201 143.086 92.2648 148.096 89.9154 153.912C87.5661 159.728 87.0272 166.091 88.3662 172.205C89.7052 178.318 92.8627 183.91 97.4431 188.281C102.024 192.651 107.823 195.605 114.116 196.772C120.409 197.94 126.914 197.27 132.818 194.846C138.723 192.421 143.763 188.35 147.307 183.143C150.852 177.936 152.743 171.824 152.745 165.572C152.645 157.05 149.081 148.916 142.837 142.959C136.593 137.001 128.18 133.708 119.449 133.804Z" fill="#129761"/>
<path d="M216.457 140.897C215.901 141.988 217.706 146.237 222.479 146.379C227.252 146.522 229.858 142.672 228.879 141.535C227.595 140.051 225.706 141.372 222.657 141.117C219.607 140.862 217.245 139.351 216.457 140.897Z" fill="#129761"/>
<path d="M215.409 149.435C213.571 149.435 210.85 148.181 212.036 146.827C212.222 146.614 212.487 146.482 212.773 146.46C213.058 146.437 213.341 146.525 213.561 146.706C214.104 147.116 214.775 147.334 215.462 147.325C216.149 147.315 216.813 147.078 217.344 146.653C217.46 146.572 217.592 146.515 217.73 146.483C217.869 146.452 218.013 146.447 218.154 146.47C218.295 146.493 218.429 146.542 218.55 146.616C218.671 146.69 218.776 146.786 218.859 146.899C218.942 147.012 219.002 147.14 219.034 147.276C219.066 147.411 219.071 147.552 219.047 147.689C219.024 147.826 218.973 147.958 218.898 148.076C218.822 148.194 218.724 148.297 218.608 148.378C217.683 149.053 216.563 149.423 215.409 149.435Z" fill="#129761"/>
<path d="M329.78 190.891C329.923 189.614 328.548 188.42 326.711 188.224C324.874 188.027 323.268 188.905 323.126 190.182C322.983 191.457 324.358 192.652 326.195 192.849C328.032 193.043 329.638 192.168 329.78 190.891Z" fill="#FCCAC2"/>
<path d="M296.553 183.726C297.116 182.566 296.221 180.998 294.551 180.225C292.881 179.452 291.069 179.765 290.506 180.927C289.941 182.087 290.838 183.655 292.508 184.428C294.178 185.201 295.99 184.888 296.553 183.726Z" fill="#FCCAC2"/>
<path d="M328.756 178.372C329.088 176.557 328.37 174.908 327.107 174.649C325.593 174.338 324.308 176.029 323.996 177.694C321.912 177.637 319.878 178.322 318.274 179.621C316.856 178.41 315.17 177.535 313.349 177.063C314.657 173.939 314.709 170.448 313.494 167.288C310.408 160.339 301.952 160.6 301.597 160.619C301.31 160.632 301.039 160.754 300.845 160.961C300.65 161.167 300.547 161.44 300.558 161.721C300.572 162 300.698 162.264 300.909 162.454C301.12 162.644 301.4 162.745 301.687 162.736C301.982 162.736 309.014 162.527 311.503 168.131C312.518 170.895 312.417 173.934 311.218 176.628C310.013 176.46 308.794 176.403 307.578 176.459C306.946 174.909 305.747 173.643 304.213 172.906C304.586 171.552 304.391 169.326 302.777 168.923C301.554 168.617 300.207 169.725 299.646 171.431C296.25 170.877 291.573 171.399 290.564 174.566C289.005 179.469 295.43 182.378 301.186 182.579C306.942 182.779 307.764 178.775 307.787 178.581C308.65 178.549 309.513 178.581 310.372 178.672C309.312 180.888 308.055 183.009 306.614 185.009C306.498 185.168 306.43 185.355 306.416 185.55C306.403 185.744 306.446 185.938 306.539 186.111C306.632 186.283 306.771 186.428 306.942 186.528C307.113 186.629 307.309 186.682 307.509 186.681C307.723 186.681 307.423 186.723 313.875 185.375C314.085 185.331 314.277 185.227 314.427 185.077C314.576 184.927 314.677 184.737 314.717 184.531C314.75 184.359 314.738 184.183 314.684 184.016C314.63 183.85 314.534 183.7 314.406 183.578C314.278 183.456 314.121 183.368 313.949 183.319C313.777 183.271 313.596 183.265 313.421 183.302L309.862 184.046C310.886 182.455 311.788 180.794 312.561 179.074C314.321 179.481 315.935 180.349 317.233 181.582C316.092 186.355 322.664 189.045 327.818 189.045C331.133 189.045 334.116 187.137 334.518 185.599C335.456 182.012 332.407 179.442 328.756 178.372ZM305.56 178.658C304.627 182.353 291.089 179.981 292.631 175.195C293.119 173.644 296.145 172.967 299.445 173.535C299.777 175.788 301.719 176.399 303.196 174.789C303.946 175.124 304.573 175.674 304.995 176.365C305.417 177.055 305.614 177.855 305.56 178.658ZM332.409 185.066C332.004 186.376 325.128 188.828 319.989 184.259C319.177 183.542 318.276 179.621 324.09 179.816C324.709 181.791 326.634 182.048 327.923 180.336C328.008 180.355 328.088 180.384 328.173 180.409C329.355 180.785 333.281 182.225 332.409 185.066Z" fill="#129761"/>
<path d="M398.818 221.189C399.325 219.958 401.045 213.025 398.929 210.53C398.929 210.321 419.67 147.312 417.531 144.104C414.932 140.204 315.043 108.881 258.746 95.4504C251.908 69.9984 233.747 70.6818 228.796 71.3715C228.148 69.5528 226.88 68.0062 225.204 66.9902C223.529 65.9742 221.546 65.5502 219.589 65.7891C219.375 65.8106 219.173 65.8928 219.008 66.0255C218.842 66.1581 218.72 66.3354 218.657 66.5353C218.594 66.7358 218.593 66.9502 218.656 67.151C218.718 67.3518 218.841 67.5297 219.008 67.6618C219.231 67.8394 219.517 67.9236 219.803 67.8959C219.803 67.8959 224.584 67.7015 226.398 71.1667C193.387 58.9026 180.478 93.1681 178.343 99.551C175.72 99.5322 47.3703 101.106 35.0852 102.477C31.9074 102.834 31.4941 103.119 31.1708 103.537C29.7831 105.317 30.5476 162.435 30.6804 164.506C26.7017 165.24 26.7338 173.74 26.8816 176.837C21.2519 179.232 17.1105 182.432 21.0056 187.03C21.0056 187.417 18.0441 191.298 22.087 194.115C20.6544 199.474 24.6246 199.589 25.7895 199.856C24.6288 203.261 27.9523 204.333 31.871 202.805C32.6654 224.303 35.4878 265.071 35.8111 265.986C35.8861 266.195 36.0809 266.91 36.749 267.002C53.6145 269.368 208.79 265.748 211.473 265.15C213.173 264.776 213.062 259.256 213.186 254.823C259.367 271.04 363.346 301.029 366.508 300.803C366.843 300.78 366.975 300.766 367.065 300.695C370.179 298.277 385.71 250.698 388.466 242.451C393.749 245.519 395.353 242.601 395.329 241.899C395.913 242.034 396.521 242.035 397.105 241.903C397.69 241.771 398.235 241.509 398.698 241.137C399.162 240.766 399.531 240.295 399.777 239.761C400.023 239.227 400.14 238.645 400.117 238.059C401.043 237.775 404.186 236.916 402.965 232.416C403.601 232.115 404.149 231.664 404.561 231.103C404.972 230.542 405.233 229.89 405.321 229.206C405.426 227.122 402.467 223.346 398.818 221.189ZM243.426 107.426C243.246 107.892 243.06 108.375 242.87 108.889C237.812 106.085 233.526 102.127 230.377 97.3544C234.176 101.34 238.577 104.737 243.426 107.426ZM224.569 94.5684C222.109 97.8162 218.478 100.031 214.409 100.765C214.142 100.825 213.909 100.98 213.755 101.2C213.6 101.421 213.537 101.689 213.577 101.953C213.617 102.217 213.757 102.456 213.97 102.624C214.183 102.791 214.453 102.874 214.725 102.855C217.143 102.455 219.451 101.577 221.508 100.274C223.564 98.9708 225.326 97.2711 226.685 95.279C230.073 101.898 235.458 107.344 242.116 110.883C242.034 111.105 239.186 118.785 237.972 122.169C236.687 120.495 234.785 119.374 232.668 119.044C232.053 115.491 228.475 115.282 227.666 118.771C220.075 119.561 219.764 125.124 223.051 127.498C227.411 130.648 234.251 129.379 235.585 128.849C231.581 140.155 227.66 151.489 223.822 162.851C217.462 166.97 212.8 163.998 211.571 163.037C211.571 161.783 210.783 144.902 210.783 144.689C212.111 143.88 214.197 142.39 214.068 141.079C213.935 139.735 212.051 140.243 210.58 140.551C210.556 140.342 210.558 139.863 210.331 135.8L218.897 133.19C219.038 133.153 219.17 133.089 219.284 133.001C219.399 132.913 219.493 132.803 219.563 132.677C219.67 132.49 219.716 132.275 219.694 132.061C219.673 131.847 219.586 131.645 219.444 131.481C219.301 131.317 219.112 131.199 218.899 131.143C218.687 131.086 218.462 131.095 218.254 131.166L211.372 133.256C213.477 129.143 217.454 120.455 216.642 114.958C215.665 108.354 211.098 106.36 208.098 106.137C208.098 106.137 207.327 101.601 207.027 100.964C213.303 100.189 219.308 98.0007 224.569 94.5726V94.5684ZM236.576 125.114C236.268 127.944 227.816 128.512 224.402 125.854C222.293 124.211 222.828 121.49 227.636 120.905C228.317 124.249 231.666 124.483 232.561 121.22C232.931 121.283 236.902 122.242 236.576 125.118V125.114ZM222.567 166.584L212.65 196.471L211.869 171.182C215.768 170.535 219.444 168.956 222.567 166.588V166.584ZM208.357 108.321C210.203 108.586 213.691 109.815 214.498 115.276C215.291 120.647 210.07 131.254 210.07 131.035C209.676 124.412 209.111 115.159 208.357 108.321ZM30.7296 166.751L30.9652 175.447C30.3228 175.606 29.6654 175.792 29.0208 176.009C28.9073 171.85 29.5155 167.641 30.7296 166.751ZM21.6695 183.243C23.4596 176.743 38.5863 175.092 40.4515 177.652C40.747 177.997 40.2138 178.825 37.8583 179.608C36.1773 179.797 27.6011 180.965 22.4703 185.435C22.1072 185.208 21.8316 184.869 21.6867 184.473C21.5418 184.076 21.5357 183.643 21.6695 183.243ZM21.9307 190.558C22.3932 182.706 40.308 179.767 42.443 182.842C42.443 182.842 43.0683 184.023 38.8262 185.977C33.2241 186.97 27.9066 189.128 23.2348 192.305C22.6995 191.921 21.8857 191.315 21.9307 190.564V190.558ZM24.3697 194.222C24.3697 193.405 38.0531 184.558 43.3423 189.323C43.3423 189.323 43.1518 190.443 37.8326 192.604C33.8822 193.629 30.1917 195.439 26.9929 197.923C26.1107 197.8 22.0613 197.748 24.3697 194.228V194.222ZM27.7146 201.106C27.2563 199.466 37.2116 192.075 43.4922 195.415C44.0297 196.899 28.4662 203.336 27.7146 201.112V201.106ZM210.443 263.192C208.828 263.463 204.207 263.754 197.301 264.044C193.417 256.596 167.729 210.977 121.71 210.977C74.0647 210.977 50.2504 257.419 46.3981 265.675C43.4025 265.619 40.4129 265.391 37.445 264.991C37.1966 264.113 34.8946 226.057 34.0188 202.166C35.1965 201.779 36.5563 201.288 38.1131 200.665C43.8777 198.366 46.0855 196.717 45.7257 194.985C45.4902 193.816 44.0811 193.185 42.3145 192.872C47.0791 190.221 46.1861 187.517 42.0597 186.422C46.0533 183.469 45.079 180.911 41.2781 179.972C42.5436 178.912 42.9312 177.855 42.4387 176.799C41.55 174.918 37.5927 174.291 33.1301 175C32.0594 136.962 31.9459 108.519 32.901 104.929C37.0403 103.808 201.569 100.749 205.126 101.973C206.376 105.648 211.064 166.581 210.642 202.682C204.946 220.315 197.233 247.826 197.252 248.499C197.237 248.734 197.287 248.968 197.396 249.178C197.505 249.388 197.67 249.566 197.873 249.692C198.357 249.977 203.325 251.636 211.064 254.132C211.085 257.164 210.878 260.195 210.443 263.198V263.192ZM281.808 274.097C281.594 273.993 204.291 249.87 199.43 248.052C199.601 246.854 199.849 245.667 200.168 244.499C200.905 243.663 237.619 199.95 289.093 219.465L291.52 243.851L281.808 274.097ZM287.376 193.254C286.134 187.355 285.937 181.292 286.791 175.328C286.791 175.328 278.564 172.193 279.605 167.944C281.025 162.14 288.436 166.481 291.412 168.132C293.725 169.413 294.034 162.395 301.316 158.639C310.366 153.972 319.991 148.386 319.991 148.386C316.436 152.327 311.909 155.318 306.839 157.074C306.591 157.148 306.378 157.307 306.239 157.521C306.101 157.736 306.046 157.992 306.085 158.242C306.125 158.492 306.253 158.72 306.448 158.886C306.644 159.052 306.893 159.145 307.152 159.149C308.458 159.089 313.961 157.156 319.627 151.834C318.245 154.161 316.147 156.004 313.631 157.101C313.367 157.21 313.156 157.416 313.046 157.675C312.936 157.934 312.934 158.225 313.043 158.485C313.216 158.892 313.64 159.264 314.047 159.141C316.116 158.515 317.984 157.378 319.471 155.84C320.958 154.302 322.013 152.416 322.533 150.363C323.248 155.55 325.782 160.334 329.702 163.904C329.905 164.092 330.173 164.196 330.452 164.196C330.731 164.195 330.999 164.09 331.201 163.902C331.402 163.714 331.522 163.457 331.535 163.185C331.548 162.913 331.453 162.647 331.27 162.441C328.298 159.626 326.154 156.084 325.06 152.186C328.281 157.12 331.813 161.854 335.636 166.36C338.292 169.612 336.326 178.607 337.08 180.139C337.833 181.671 347.058 181.12 347.039 187.433C347.024 192.897 337.283 189.327 336.471 191.039C333.064 198.224 326.349 210.942 313.773 210.752C313.508 210.728 313.242 210.796 313.023 210.943C312.803 211.09 312.643 211.306 312.569 211.556L309.64 223.718L293.447 241.456L291.213 218.85L292.926 213.456C296.055 213.953 304.548 214.806 308.687 210.285C308.681 210.285 294.922 210.576 287.382 193.26L287.376 193.254ZM368.228 293.645C367.59 295.367 366.858 297.054 366.037 298.701C361.862 298.258 331.503 289.404 283.881 274.749L293.592 244.513L311.002 225.438C342.052 233.988 355.971 251.981 362.153 265.612C366.185 274.432 368.256 283.987 368.228 293.645ZM370.258 288.278C369.59 280.19 367.536 272.268 364.183 264.843C357.829 250.811 343.609 232.322 311.946 223.494L314.49 212.915C319.213 212.882 323.741 211.067 327.124 207.851C336.677 206.16 342.542 196.529 344.574 192.577C351.825 190.556 349.048 184.589 348.157 183.368C348.157 183.368 353.018 165.998 348.585 154.976C344.33 144.396 335.782 138.557 327.101 138.256C326.831 136.787 326.188 135.408 325.232 134.244C324.276 133.08 323.037 132.168 321.627 131.591C321.362 131.482 321.063 131.48 320.796 131.586C320.53 131.693 320.317 131.898 320.205 132.157C320.094 132.416 320.092 132.708 320.201 132.968C320.31 133.229 320.52 133.436 320.786 133.545C322.454 134.276 323.801 135.564 324.587 137.177C320.645 134.767 315.972 133.759 311.357 134.324C300.475 135.355 283.997 146.701 282.252 162.991C274.296 165.76 278.093 171.911 279.468 173.393C279.254 176.634 279.187 186.288 284.922 191.743C285.965 197.165 288.851 202.085 293.113 205.708L289.417 217.316C280.198 213.592 242.105 200.299 201.31 240.214C215.406 193.933 245.422 105.827 250.651 95.9708C305.64 108.897 412.587 142.896 415.591 145.161C415.882 150.246 395.995 211.567 394.01 218.66C390.655 217.329 384.093 216.741 386.329 221.143C380.914 221.609 382.65 224.631 383.933 226.303C378.027 225.937 380.355 229.944 381.931 231.543C380.156 231.397 379.044 231.741 378.605 232.577C377.834 234.04 379.342 235.951 383.971 239.403C384.92 240.112 385.783 240.722 386.565 241.249C379.993 260.951 374.104 277.92 370.258 288.274V288.278ZM396.952 220.044C396.738 219.937 396.576 219.822 396.006 219.55L397.993 213.429C398.233 215.683 397.875 217.96 396.952 220.039V220.044ZM393.143 242.148C392.286 243.278 379.314 235.284 380.751 233.627C383.145 230.87 394.1 240.216 393.143 242.148ZM394.7 239.7C392.366 235.196 381.652 230.41 382.383 228.588C385.466 224.525 405.302 241.335 394.704 239.7H394.7ZM401.047 234.941C400.652 235.44 400.117 235.814 399.507 236.02C398.732 234.747 393.027 228.425 387.228 226.759C383.974 224.251 384.809 223.459 384.809 223.459C390.691 222.167 402.961 232.408 401.051 234.941H401.047ZM401.965 230.508C398.524 226.822 394.367 223.838 389.736 221.73C388.996 221.189 388.399 220.483 387.997 219.67C392.768 218.207 403.529 227.365 403.143 229.093C403.056 229.394 402.907 229.675 402.705 229.918C402.503 230.161 402.253 230.362 401.97 230.508H401.965Z" fill="#129761"/>
<path d="M308.203 189.885C308.203 190.744 306.434 192.912 302.188 192.508C298.751 192.18 297.395 189.693 297.965 188.347C298.858 186.245 301.063 187.764 303.104 188.103C304.948 188.406 308.205 188.378 308.203 189.885Z" fill="#129761"/>
<path d="M309.95 190.46C309.485 191.191 309.736 193.854 313.708 195.367C316.92 196.592 319.854 194.884 319.86 193.43C319.86 191.44 316.984 191.979 315.001 191.377C313.22 190.838 310.789 189.145 309.95 190.46Z" fill="#129761"/>
<path d="M202.438 335.259H162.902C162.831 335.05 138.522 271.289 138.438 271.082C136.683 266.64 133.513 256.452 117.639 256.452C98.0607 256.452 35.6245 257.718 29.346 257.76C15.0844 257.852 9.36048 266.592 13.1336 278.702C18.1251 294.722 34.7851 339.912 34.7851 339.912C34.7851 339.912 37.2948 351.179 53.3572 351.179C69.4197 351.179 138.689 350.199 148.73 349.954C153.612 349.835 158.31 349.421 161.191 347.342H203.181C203.926 347.342 210.05 348.24 210.05 341.788C210.05 335.337 205.785 335.259 202.438 335.259Z" fill="white"/>
<path d="M202.851 334.039C200.667 333.965 165.758 334.567 163.812 334.578C163.658 334.12 137.381 265.923 137.184 265.576C134.559 260.824 129.402 255.392 117.637 255.392C104.721 255.392 30.1835 256.694 29.3398 256.7C14.4572 256.801 8.06731 266.105 12.0952 279.015C16.9605 294.621 33.0679 338.371 33.7446 340.214C34.3996 342.473 35.5994 344.546 37.2436 346.259C39.8004 348.99 44.6656 352.242 53.3575 352.242C69.1116 352.242 138.584 351.262 148.756 351.014C152.735 350.915 157.848 350.667 161.206 348.618C165.101 348.597 203.211 348.274 203.211 348.274C206.689 348.159 211.451 348.002 211.306 341.443C211.145 334.308 205.749 334.133 202.851 334.039ZM148.7 348.894C138.535 349.141 69.1052 350.123 53.3575 350.123C38.4235 350.123 35.9481 340.112 35.8474 339.688C35.7189 339.188 19.2881 294.807 14.1745 278.399C10.5342 266.724 16.1018 258.905 29.3505 258.819C30.207 258.819 104.491 257.511 117.637 257.511C125.64 257.511 131.556 260.044 135.317 266.642C141.557 282.016 161.994 335.882 162.039 336.091C163.264 339.985 163.784 344.365 160.347 346.643C160.298 346.674 160.25 346.708 160.204 346.744C157.735 348.317 153.75 348.773 148.7 348.894ZM203.138 346.156C199.406 346.278 168.394 346.457 163.593 346.484C165.649 343.724 165.354 340.006 164.465 336.684C164.465 336.684 199.369 336.057 202.779 336.156C206.314 336.271 209.027 336.737 209.132 341.489C209.228 345.757 207.143 346.025 203.138 346.156Z" fill="#129761"/>
<path d="M80.2549 311.13C82.0521 311.13 83.7757 310.433 85.0465 309.193C86.3174 307.952 87.0313 306.27 87.0313 304.516C87.0313 302.762 86.3174 301.08 85.0465 299.839C83.7757 298.599 82.0521 297.902 80.2549 297.902C78.4577 297.902 76.7341 298.599 75.4633 299.839C74.1925 301.08 73.4785 302.762 73.4785 304.516C73.4785 306.27 74.1925 307.952 75.4633 309.193C76.7341 310.433 78.4577 311.13 80.2549 311.13Z" fill="#129761"/>
<path d="M189.89 327.582C189.636 327.578 189.391 327.489 189.197 327.328C189.004 327.168 188.873 326.948 188.827 326.704C188.783 326.46 188.828 326.208 188.954 325.992C189.081 325.777 189.281 325.612 189.519 325.525L224.657 313.104C224.861 313.028 225.083 313.012 225.297 313.059C225.51 313.105 225.704 313.213 225.854 313.368C226.002 313.525 226.098 313.722 226.13 313.933C226.162 314.145 226.128 314.36 226.034 314.553C225.97 314.68 225.881 314.794 225.771 314.888C225.662 314.981 225.534 315.052 225.396 315.096C189.911 327.636 190.189 327.582 189.89 327.582Z" fill="#129761"/>
<path d="M185.497 317.947C185.279 317.948 185.065 317.884 184.885 317.763C184.705 317.642 184.567 317.471 184.489 317.272C184.409 317.074 184.393 316.856 184.441 316.649C184.49 316.441 184.601 316.253 184.761 316.108L201.358 301.131C201.571 300.941 201.851 300.841 202.138 300.852C202.426 300.863 202.697 300.984 202.894 301.189C202.991 301.291 203.067 301.411 203.117 301.541C203.167 301.672 203.189 301.811 203.184 301.95C203.178 302.089 203.144 302.226 203.084 302.352C203.024 302.478 202.939 302.592 202.834 302.686C185.696 318.16 186.159 317.947 185.497 317.947Z" fill="#129761"/>
<path d="M173.073 314.517C172.895 314.519 172.718 314.477 172.561 314.395C172.403 314.312 172.269 314.193 172.172 314.047C172.072 313.903 172.011 313.736 171.993 313.563C171.975 313.39 172.001 313.215 172.069 313.054L183.885 284.658C183.993 284.397 184.203 284.19 184.468 284.08C184.733 283.971 185.032 283.969 185.298 284.075C185.565 284.18 185.778 284.385 185.89 284.643C186.002 284.902 186.004 285.194 185.896 285.454L174.08 313.855C173.999 314.051 173.861 314.22 173.681 314.338C173.502 314.456 173.29 314.519 173.073 314.517Z" fill="#129761"/>
</svg>
