<svg width="485" height="380" viewBox="0 0 485 380" fill="none" xmlns="http://www.w3.org/2000/svg">
<path d="M257.682 349.005C257.682 349.005 399.236 350.326 404.087 349.005C408.939 347.684 447.267 355.533 448.613 316.34C449.934 277.631 449.223 114.055 448.613 108.06C448.004 102.066 448.842 66.8107 400.684 66.9377C354.227 66.9377 99.4142 66.4043 72.795 66.9377C37.9462 67.5981 29.8436 76.1325 29.615 111.946C29.3864 147.76 28.6498 244.788 28.6498 244.788C25.2251 245.959 22.1467 247.966 19.6939 250.627C17.2411 253.288 15.4914 256.52 14.6036 260.028C12.978 266.099 21.2076 326.805 29.1324 348.928C31.6724 355.685 43.839 362.289 63.6764 358.149C97.0774 351.164 138.86 345.449 138.86 345.449C139.343 349.563 142.62 349.157 146.734 349.157L257.682 349.005Z" fill="white"/>
<path d="M450.061 116.8C450.061 100.341 450.061 65.7457 402.639 65.7457H73.0236C55.5992 65.7457 29.2339 65.4917 28.9799 102.525V159.523C29.0268 159.877 29.2007 160.202 29.4694 160.437C29.7381 160.673 30.0832 160.803 30.4405 160.803C30.7977 160.803 31.1428 160.673 31.4115 160.437C31.6802 160.202 31.8541 159.877 31.9009 159.523C31.9009 159.269 31.4183 144.029 31.9009 112.329C48.8428 112.329 218.464 111.364 447.648 109.662C447.648 112.329 447.877 299.629 447.877 310.525C447.877 323.581 444.956 332.776 438.936 338.465C428.776 348.346 411.352 348.041 392.708 347.914L259.231 347.482C257.656 347.482 256.894 350.937 259.231 350.937L402.487 351.191C417.981 351.191 431.824 350.023 440.968 341.031C447.547 334.554 451.128 324.597 450.874 311.033C450.671 299.222 450.061 146.34 450.061 116.8ZM31.647 109.18V102.398C31.774 87.1579 36.473 77.4297 45.9218 72.4005C54.1514 68.0063 64.5654 68.2857 73.0236 68.2857H402.639C439.419 68.2857 445.946 89.5709 447.166 106.513C218.235 108.342 48.5888 109.053 31.647 109.307V109.18Z" fill="#146746"/>
<path d="M371.651 84.3893C371.297 84.3425 370.972 84.1685 370.737 83.8999C370.501 83.6312 370.371 83.2861 370.371 82.9288C370.371 82.5715 370.501 82.2264 370.737 81.9577C370.972 81.689 371.297 81.5151 371.651 81.4683C371.905 81.4683 393.902 81.2397 418.591 81.4683C418.799 81.4408 419.01 81.4581 419.211 81.5189C419.412 81.5797 419.597 81.6827 419.755 81.8209C419.913 81.9592 420.039 82.1296 420.126 82.3206C420.212 82.5117 420.257 82.719 420.257 82.9288C420.257 83.1386 420.212 83.3459 420.126 83.537C420.039 83.728 419.913 83.8984 419.755 84.0367C419.597 84.1749 419.412 84.2779 419.211 84.3387C419.01 84.3995 418.799 84.4168 418.591 84.3893C393.902 84.1353 371.651 84.3893 371.651 84.3893Z" fill="#146746"/>
<path d="M371.651 97.6971C371.297 97.6503 370.972 97.4764 370.737 97.2077C370.501 96.939 370.371 96.5939 370.371 96.2366C370.371 95.8793 370.501 95.5342 370.737 95.2655C370.972 94.9969 371.297 94.8229 371.651 94.7761C371.905 94.7761 393.902 94.5475 418.591 94.7761C418.799 94.7486 419.01 94.7659 419.211 94.8267C419.412 94.8875 419.597 94.9905 419.755 95.1288C419.913 95.267 420.039 95.4374 420.126 95.6284C420.212 95.8195 420.257 96.0268 420.257 96.2366C420.257 96.4464 420.212 96.6537 420.126 96.8448C420.039 97.0358 419.913 97.2062 419.755 97.3445C419.597 97.4827 419.412 97.5857 419.211 97.6465C419.01 97.7073 418.799 97.7246 418.591 97.6971C393.902 97.4431 371.651 97.6971 371.651 97.6971Z" fill="#146746"/>
<path d="M371.651 91.1447C371.267 91.1447 370.899 90.9921 370.627 90.7206C370.356 90.4491 370.203 90.0808 370.203 89.6969C370.203 89.3129 370.356 88.9446 370.627 88.6731C370.899 88.4016 371.267 88.2491 371.651 88.2491C371.905 88.2491 393.902 87.9951 418.59 88.2491C418.969 88.2724 419.327 88.4317 419.597 88.6977C419.868 88.9637 420.034 89.3185 420.064 89.6969C420.039 90.0771 419.875 90.435 419.603 90.7021C419.332 90.9691 418.971 91.1267 418.59 91.1447C393.902 90.7891 371.651 91.1447 371.651 91.1447Z" fill="#146746"/>
<path d="M66.0133 88.7315C65.9877 89.6868 65.5968 90.5958 64.9211 91.2715C64.2454 91.9472 63.3364 92.3381 62.3811 92.3637C61.35 92.3309 60.3718 91.8998 59.6519 91.1609C58.932 90.422 58.5264 89.4329 58.5203 88.4013C58.5099 87.9215 58.5968 87.4445 58.7756 86.9992C58.9545 86.5538 59.2217 86.1492 59.561 85.8098C59.9004 85.4705 60.305 85.2033 60.7503 85.0244C61.1957 84.8456 61.6727 84.7587 62.1525 84.7691C63.1714 84.8372 64.1293 85.2794 64.8419 86.0108C65.5545 86.7422 65.9717 87.7112 66.0133 88.7315Z" fill="#146746"/>
<path d="M84.4026 88.7326C84.3769 89.6878 83.986 90.5968 83.3103 91.2725C82.6346 91.9482 81.7256 92.3391 80.7704 92.3648C79.7393 92.3319 78.761 91.9008 78.0411 91.1619C77.3212 90.4231 76.9156 89.434 76.9096 88.4024C76.9162 87.468 77.2903 86.5739 77.951 85.9132C78.6117 85.2525 79.5059 84.8784 80.4402 84.8718C81.4605 84.9133 82.4295 85.3305 83.1609 86.0432C83.8923 86.7558 84.3345 87.7137 84.4026 88.7326Z" fill="#146746"/>
<path d="M102.31 88.7315C102.284 89.6868 101.894 90.5958 101.218 91.2715C100.542 91.9472 99.6331 92.3381 98.6779 92.3637C97.6468 92.3309 96.6686 91.8998 95.9486 91.1609C95.2287 90.422 94.8231 89.4329 94.8171 88.4013C94.8067 87.9215 94.8935 87.4445 95.0724 86.9992C95.2512 86.5538 95.5184 86.1492 95.8578 85.8098C96.1972 85.4705 96.6017 85.2033 97.0471 85.0244C97.4925 84.8456 97.9695 84.7587 98.4493 84.7691C99.4682 84.8372 100.426 85.2794 101.139 86.0108C101.851 86.7422 102.269 87.7112 102.31 88.7315Z" fill="#146746"/>
<path d="M173.303 228.686C125.576 225.917 85.0887 231.886 41.4007 240.446C25.3987 243.57 13.7909 245.526 14.2989 268.081C14.7561 287.969 23.0619 333.308 26.5163 343.646C30.5041 355.559 36.6763 362.01 56.4629 360.181C79.7293 358.022 145.363 345.272 145.896 345.145C146.077 345.115 146.25 345.048 146.404 344.949C146.558 344.849 146.691 344.72 146.793 344.567C146.895 344.415 146.965 344.244 146.999 344.063C147.033 343.883 147.029 343.698 146.989 343.519C146.915 343.16 146.703 342.845 146.399 342.64C146.095 342.436 145.723 342.359 145.363 342.427C144.703 342.554 79.3229 355.279 56.2089 357.413C50.7664 358.194 45.2177 357.734 39.9783 356.067C44.3725 348.167 65.9117 310.118 79.9579 295.488C90.1179 300.568 105.714 307.349 117.194 306.46C136.397 304.962 163.397 249.006 164.54 246.618C164.697 246.291 164.719 245.915 164.6 245.572C164.481 245.23 164.231 244.948 163.905 244.789C163.742 244.707 163.564 244.659 163.382 244.646C163.2 244.634 163.017 244.658 162.844 244.717C162.672 244.776 162.513 244.869 162.376 244.991C162.24 245.112 162.129 245.259 162.051 245.424C161.771 246.008 134.593 302.32 116.966 303.692C93.1913 305.546 43.3057 271.434 19.9123 252.892C23.7477 246.567 31.2661 245.094 41.9087 243.138C89.1273 234.401 121.69 228.432 173.151 231.403C173.331 231.414 173.511 231.388 173.682 231.329C173.852 231.269 174.009 231.177 174.143 231.056C174.278 230.936 174.387 230.79 174.465 230.627C174.543 230.465 174.589 230.288 174.598 230.108C174.609 229.929 174.583 229.75 174.523 229.581C174.463 229.412 174.37 229.257 174.25 229.124C174.129 228.992 173.983 228.885 173.821 228.81C173.658 228.734 173.482 228.692 173.303 228.686ZM77.3925 294.141C62.8129 309.737 41.6547 347.278 37.4383 354.873C32.2059 351.901 30.6565 347.253 28.8531 341.868C26.4401 334.705 17.5501 289.569 17.0675 268.005C16.7955 263.757 17.3475 259.496 18.6931 255.457C23.8493 259.521 50.9003 280.4 77.3925 294.141Z" fill="#146746"/>
<path d="M17.1434 244.105C64.6289 230.016 114.033 223.476 163.549 224.725C165.521 222.356 167.615 220.092 169.823 217.943C169.823 217.943 74.9538 155.586 62.1522 149.947C51.2302 145.172 44.8802 152.335 41.5782 157.567C39.0382 161.402 5.02765 208.367 2.36065 219.035C-0.306354 229.703 5.02765 236.104 17.1434 244.105Z" fill="#146746"/>
<path d="M83.7931 228.458C77.6463 220.838 54.0497 158.811 50.6207 149.718C50.5559 149.546 50.4577 149.388 50.3319 149.254C50.2061 149.12 50.0552 149.013 49.8876 148.937C49.7201 148.862 49.5393 148.82 49.3557 148.814C49.172 148.809 48.9891 148.84 48.8173 148.905C48.6486 148.97 48.4943 149.067 48.3633 149.191C48.2323 149.316 48.1272 149.465 48.0541 149.63C47.9809 149.795 47.9411 149.973 47.937 150.154C47.9328 150.335 47.9644 150.514 48.0299 150.683C48.7665 152.664 60.8823 184.744 70.6867 207.782C50.8747 209.687 6.34851 224.292 2.10671 225.054C1.87758 225.029 1.64586 225.062 1.43294 225.15C1.22003 225.239 1.03278 225.379 0.888488 225.559C0.744201 225.739 0.64753 225.952 0.607403 226.179C0.567277 226.406 0.58499 226.639 0.658906 226.857C1.16691 228.381 1.29391 228.305 13.7907 224.622C29.4625 219.999 58.2915 211.49 71.9313 210.449C74.5888 217.309 77.8619 223.915 81.7103 230.185C81.9558 230.397 82.2687 230.516 82.5933 230.519C82.918 230.522 83.2332 230.411 83.4831 230.203C83.733 229.996 83.9013 229.707 83.9581 229.387C84.0148 229.068 83.9564 228.738 83.7931 228.458Z" fill="white"/>
<path d="M280.415 166.658C278.154 158.149 264.209 111.235 252.475 91.398C240.74 71.5606 217.6 52.4344 199.109 65.5408C198.858 65.6975 198.578 65.8009 198.285 65.8446C197.992 65.8883 197.693 65.8714 197.407 65.7948C193.293 64.5756 176.833 61.172 165.48 73.0592C136.371 103.539 150.24 156.549 138.378 187.994C138.289 188.256 138.257 188.533 138.284 188.808C138.31 189.083 138.395 189.349 138.531 189.589C138.668 189.829 138.854 190.037 139.077 190.2C139.3 190.363 139.555 190.477 139.826 190.534C153.135 194.395 227.176 213.775 279.703 168.766C279.998 168.509 280.219 168.179 280.344 167.808C280.469 167.438 280.493 167.041 280.415 166.658Z" fill="#00D47E"/>
<path d="M384.961 127.923C385.225 124.237 386.384 120.671 388.339 117.535C391.742 111.718 397.483 96.9609 396.822 88.7313C396.289 82.2035 406.728 64.2965 402.639 62.8487C399.235 61.6295 389.558 82.4321 389.558 82.4321L386.408 81.9495C386.408 81.9495 389.329 52.6633 384.732 52.4347C380.135 52.2061 378.915 81.4669 378.915 81.4669L374.547 82.2035C374.547 82.2035 368.501 49.0311 364.387 48.8025C360.272 48.5739 366.317 84.3625 366.317 84.3625L362.939 85.3277C362.939 85.3277 352.22 56.4987 347.14 57.9211C340.104 60.0293 361.186 102.015 358.748 103.412C356.309 104.809 344.498 92.5413 341.577 96.1481C337.234 101.507 353.007 111.82 363.599 119.643C365.53 121.065 365.276 125.688 365.047 128.584L384.961 127.923Z" fill="white"/>
<path d="M235.38 319.847L229.081 346.949C231.616 352.231 233.88 357.64 235.863 363.154C237.031 367.04 241.679 379.334 244.092 378.876C246.505 378.419 246.632 375.016 246.632 375.016C246.632 375.016 251.001 377.556 253.186 371.612C253.186 371.612 258.977 374.152 258.012 362.671C258.012 362.671 263.828 361.935 257.529 344.51C258.399 344.904 259.386 344.95 260.288 344.638C261.191 344.326 261.939 343.681 262.38 342.834C263.777 340.294 257.3 327.822 245.667 327.594C242.775 324.367 239.281 321.735 235.38 319.847Z" fill="white"/>
<path d="M220.419 206.817C220.419 206.817 246.785 222.565 251.865 195.692L246.048 182.382C246.048 182.382 267.587 164.602 253.084 133.259C253.084 133.259 261.059 125.639 256.716 116.088C255.419 113.385 253.341 111.132 250.752 109.62C248.162 108.108 245.179 107.406 242.187 107.605C242.187 107.605 234.44 85.8625 204.671 82.4335C204.671 82.4335 199.845 115.606 176.376 128.433L180.491 143.19C180.491 143.19 168.146 143.419 166.927 153.579C165.708 163.739 180.719 166.66 187.018 162.774C187.018 162.774 195.731 186.269 217.016 189.164C217.016 188.91 220.902 202.956 220.419 206.817Z" fill="white"/>
<path d="M199.337 158.068C199.355 158.646 199.533 159.211 199.861 159.73C200.189 160.249 200.661 160.712 201.248 161.09C201.835 161.468 202.526 161.755 203.28 161.934C204.035 162.113 204.837 162.18 205.641 162.13C206.444 162.081 207.233 161.918 207.96 161.648C208.687 161.379 209.338 161.01 209.874 160.563C210.411 160.116 210.823 159.6 211.085 159.045C211.348 158.49 211.455 157.907 211.402 157.331C211.385 156.753 211.207 156.188 210.879 155.669C210.551 155.15 210.079 154.688 209.492 154.309C208.905 153.931 208.214 153.644 207.46 153.465C206.705 153.287 205.903 153.22 205.099 153.269C204.296 153.318 203.507 153.482 202.78 153.751C202.053 154.02 201.402 154.389 200.865 154.836C200.329 155.283 199.917 155.799 199.655 156.354C199.392 156.909 199.284 157.492 199.337 158.068Z" fill="#FCCAC2"/>
<path d="M246.074 142.58C246.334 143.062 246.721 143.468 247.211 143.773C247.702 144.078 248.287 144.276 248.931 144.356C249.576 144.436 250.267 144.396 250.964 144.239C251.662 144.081 252.352 143.809 252.993 143.439C253.634 143.068 254.214 142.607 254.699 142.082C255.184 141.556 255.564 140.977 255.817 140.379C256.07 139.781 256.19 139.176 256.171 138.598C256.152 138.021 255.994 137.483 255.706 137.017C255.44 136.543 255.05 136.146 254.558 135.849C254.067 135.551 253.484 135.359 252.843 135.283C252.202 135.208 251.516 135.25 250.825 135.408C250.133 135.566 249.449 135.837 248.813 136.204C248.177 136.571 247.601 137.028 247.118 137.548C246.636 138.068 246.256 138.641 246.001 139.234C245.746 139.827 245.621 140.428 245.633 141.002C245.645 141.576 245.794 142.112 246.072 142.58" fill="#FCCAC2"/>
<path d="M389.812 126.73H386.409C387.171 122.474 388.648 118.377 390.777 114.614L392.225 111.49C395.667 103.677 397.713 95.3207 398.27 86.8012C399.871 80.7814 407.719 63.3316 403.35 61.1472C403.109 60.9685 402.828 60.8518 402.531 60.8075C402.234 60.7632 401.931 60.7926 401.649 60.8932C398.27 62.087 391.26 75.422 388.822 80.9846L387.628 80.756C387.856 78.216 388.39 72.755 388.593 67.4464C389.152 53.4002 387.374 51.2158 385.215 50.9872C384.529 50.9421 383.845 51.1107 383.259 51.4698C379.703 54.3146 378.052 72.7296 377.214 80.2734L375.029 80.502C374.064 73.4916 370.432 51.2412 365.835 47.8376C365.533 47.575 365.177 47.3829 364.792 47.2753C364.406 47.1676 364.002 47.1471 363.608 47.2152C363.214 47.2833 362.84 47.4383 362.514 47.669C362.187 47.8997 361.916 48.2002 361.72 48.5488C358.265 53.3494 362.71 76.4888 364.26 83.6516L363.523 83.8802C362.812 81.7212 360.983 77.1238 358.697 72.2724C352.652 58.9628 349.502 57.515 348.283 57.261C347.47 56.9251 346.556 56.9251 345.743 57.261C340.079 60.0296 348.715 78.0128 357.351 101.813C356.453 101.23 355.604 100.576 354.811 99.8568C349.985 96.2246 343.432 91.1446 339.571 95.742C339.206 96.1233 338.946 96.5931 338.817 97.1051C338.687 97.6172 338.694 98.154 338.834 98.663C339.927 106.689 362.126 119.593 363.041 121.396C363.795 123.319 363.962 125.423 363.523 127.441C361.226 127.436 358.941 127.769 356.741 128.432C356.259 129.626 351.433 205.851 351.433 205.851C334.974 194.98 292.86 179.181 272.54 184.083C265.291 185.88 258.465 189.082 252.449 193.507C251.23 190.611 248.817 185.277 247.369 182.153C258.062 173.974 263.955 154.568 254.379 133.512C255.901 132.078 257.115 130.351 257.949 128.434C258.783 126.517 259.219 124.451 259.231 122.361C258.977 107.35 243.508 106.893 243.254 106.893C232.84 82.6864 204.545 81.2386 204.291 81.2386C203.941 81.21 203.595 81.3187 203.324 81.5417C203.054 81.7646 202.881 82.0841 202.843 82.4324C202.843 82.6864 200.531 114.03 175.741 127.213C175.51 127.377 175.323 127.594 175.195 127.846C175.067 128.098 175.001 128.378 175.004 128.66C176.224 133.029 177.925 139.303 178.637 142.224C174.795 142.508 171.149 144.032 168.248 146.567C167.071 147.804 166.214 149.31 165.751 150.953C165.288 152.596 165.233 154.328 165.591 155.997C165.949 157.667 166.709 159.224 167.805 160.533C168.901 161.842 170.3 162.863 171.88 163.509C176.295 165.27 181.202 165.351 185.672 163.738C186.638 165.922 196.544 186.979 215.67 189.646C216.152 192.186 217.854 198.841 218.565 203.438C168.731 179.486 96.1881 328.457 144.27 352.993C153.719 357.819 227.278 350.453 229.716 350.072C235.609 363.077 238.174 379.612 243.991 379.612C245.667 379.358 246.531 377.682 247.14 376.209C247.805 376.429 248.508 376.509 249.206 376.444C249.903 376.379 250.58 376.171 251.193 375.832C251.806 375.494 252.342 375.032 252.768 374.476C253.194 373.92 253.5 373.282 253.668 372.602C254.231 372.792 254.831 372.845 255.419 372.757C256.006 372.669 256.564 372.441 257.046 372.094C259.586 370.443 259.586 365.82 259.231 363.382C263.828 361.858 262.152 353.704 260.679 349.082H340.003C337.463 331.429 310.285 249.183 310.285 249.183C310.285 249.183 358.113 280.451 389.66 263.204C416.812 248.421 399.49 126.959 389.812 126.73ZM243.889 109.306C246.401 109.306 248.856 110.05 250.945 111.446C253.033 112.841 254.661 114.825 255.622 117.146C256.584 119.466 256.835 122.02 256.345 124.483C255.855 126.947 254.646 129.21 252.869 130.986C251.093 132.762 248.83 133.972 246.367 134.462C243.903 134.952 241.35 134.7 239.029 133.739C236.708 132.778 234.725 131.15 233.329 129.061C231.934 126.973 231.189 124.517 231.189 122.006C231.189 118.637 232.527 115.407 234.909 113.025C237.291 110.644 240.521 109.306 243.889 109.306ZM218.489 188.427C218.261 187.944 218.007 187.461 217.295 187.461C197.433 184.921 188.009 162.061 188.009 161.807C187.906 161.623 187.765 161.463 187.595 161.337C187.426 161.211 187.231 161.122 187.025 161.077C186.819 161.031 186.605 161.03 186.398 161.072C186.192 161.115 185.996 161.201 185.825 161.325C183.894 162.773 177.138 163.484 172.515 161.325C166.241 158.404 168.883 150.428 170.585 148.98C173.963 145.348 180.516 145.12 180.745 145.12C181.532 145.12 182.345 144.205 181.964 143.418C181.583 142.63 179.043 132.775 178.332 129.397C184.841 125.814 190.27 120.551 194.054 114.157C197.859 113.039 201.952 113.478 205.434 115.376C205.591 115.476 205.766 115.543 205.95 115.573C206.134 115.603 206.322 115.595 206.502 115.55C206.683 115.504 206.853 115.423 207.001 115.31C207.149 115.197 207.272 115.056 207.364 114.894C207.476 114.74 207.553 114.564 207.589 114.378C207.626 114.192 207.621 114 207.575 113.815C207.528 113.631 207.443 113.459 207.323 113.312C207.203 113.165 207.052 113.046 206.881 112.963C203.657 111.128 199.903 110.447 196.239 111.033C200.76 102.71 203.94 93.7269 205.662 84.4136C216.786 85.5657 227.112 90.7199 234.72 98.917C232.405 99.4093 230.246 100.461 228.43 101.979C226.615 103.498 225.199 105.438 224.306 107.629C224.232 107.788 224.194 107.961 224.191 108.136C224.189 108.311 224.224 108.484 224.294 108.645C224.363 108.805 224.466 108.949 224.595 109.068C224.724 109.186 224.876 109.276 225.042 109.331C225.754 109.56 226.719 109.077 226.719 108.594C226.719 108.112 229.64 101.33 236.65 101.33C237.844 103.032 239.317 104.962 240.511 106.918C226.49 110.296 228.421 125.308 228.903 126.755C227.423 126.958 225.962 127.281 224.534 127.721C223.341 124.342 221.817 120.253 220.445 116.341C220.339 115.993 220.103 115.699 219.786 115.52C219.47 115.34 219.096 115.289 218.743 115.376C218.567 115.423 218.402 115.505 218.258 115.616C218.114 115.727 217.994 115.866 217.904 116.025C217.814 116.183 217.757 116.358 217.735 116.539C217.713 116.72 217.728 116.903 217.778 117.078C218.972 120.71 220.318 124.698 221.893 128.457C219.554 129.412 217.417 130.799 215.594 132.547C214.331 129.818 212.319 127.504 209.791 125.876C207.264 124.248 204.325 123.373 201.319 123.352C198.254 123.352 195.259 124.26 192.711 125.963C190.163 127.665 188.177 130.085 187.004 132.916C185.831 135.748 185.525 138.863 186.122 141.869C186.72 144.874 188.196 147.635 190.363 149.802C192.53 151.969 195.29 153.444 198.296 154.042C201.302 154.64 204.417 154.333 207.248 153.16C210.079 151.988 212.499 150.002 214.202 147.454C215.904 144.906 216.813 141.91 216.813 138.846C216.763 137.623 216.601 136.407 216.33 135.214C218.073 133.277 220.249 131.781 222.68 130.845C223.608 133.55 224.826 136.148 226.312 138.592C227.278 139.557 232.612 139.557 233.094 139.557C232.192 141.564 231.14 143.5 229.945 145.348C229.837 145.505 229.763 145.683 229.729 145.87C229.694 146.057 229.7 146.25 229.746 146.435C229.792 146.619 229.876 146.793 229.993 146.942C230.111 147.092 230.259 147.215 230.427 147.304C230.75 147.485 231.129 147.537 231.488 147.447C231.847 147.357 232.158 147.133 232.358 146.821C238.53 136.661 236.498 137.119 231.392 136.661C230.165 136.649 228.944 136.478 227.76 136.153C226.701 134.155 225.85 132.052 225.22 129.88C226.624 129.342 228.112 129.059 229.614 129.041C230.606 131.005 232.006 132.734 233.719 134.114C235.432 135.494 237.42 136.492 239.55 137.043C241.68 137.593 243.903 137.683 246.07 137.306C248.238 136.93 250.3 136.095 252.119 134.858C255.847 143.238 257.09 152.513 255.7 161.579C252.322 180.68 238.301 183.601 237.565 183.601C237.214 183.721 236.908 183.946 236.69 184.246C236.472 184.546 236.351 184.906 236.345 185.277C236.418 185.612 236.599 185.913 236.861 186.133C237.123 186.354 237.451 186.482 237.793 186.496C240.333 185.86 242.776 184.886 245.058 183.601C246.759 187.461 249.655 193.989 250.392 195.691C249.937 198.201 248.916 200.574 247.407 202.629C245.897 204.685 243.938 206.369 241.679 207.553C234.186 211.236 224.255 207.299 221.588 206.105C221.385 201.254 218.464 188.909 218.464 188.427H218.489ZM214.349 139.201C214.349 141.713 213.604 144.169 212.209 146.257C210.813 148.346 208.83 149.973 206.509 150.935C204.188 151.896 201.635 152.147 199.171 151.657C196.708 151.167 194.445 149.958 192.669 148.182C190.893 146.406 189.683 144.143 189.193 141.679C188.703 139.215 188.954 136.662 189.916 134.341C190.877 132.021 192.505 130.037 194.593 128.642C196.682 127.246 199.137 126.501 201.649 126.501C205.001 126.554 208.201 127.909 210.571 130.279C212.942 132.65 214.297 135.849 214.349 139.201ZM150.849 312.455C150.653 312.541 150.44 312.58 150.227 312.567C150.013 312.555 149.806 312.492 149.621 312.383C149.437 312.275 149.281 312.124 149.167 311.943C149.053 311.762 148.983 311.557 148.964 311.344C148.945 311.131 148.977 310.917 149.057 310.718C149.137 310.52 149.263 310.344 149.425 310.204C149.587 310.065 149.78 309.965 149.988 309.915C150.196 309.865 150.412 309.865 150.62 309.915C151.586 309.915 158.85 309.204 169.239 308.238C174.801 285.963 185.952 256.448 185.952 256.194C186.08 255.857 186.336 255.585 186.665 255.437C186.994 255.289 187.368 255.278 187.704 255.406C188.041 255.534 188.313 255.791 188.461 256.12C188.609 256.448 188.62 256.822 188.492 257.159C188.492 257.413 177.595 285.963 172.033 307.959C193.318 306.283 224.306 304.581 238.073 307.476C238.426 307.601 238.732 307.831 238.95 308.136C239.168 308.44 239.287 308.804 239.292 309.178C239.292 309.407 238.327 314.487 237.819 316.671C237.662 316.925 237.428 317.121 237.15 317.23C236.873 317.339 236.567 317.354 236.28 317.274C235.993 317.193 235.74 317.022 235.559 316.785C235.379 316.548 235.28 316.258 235.279 315.96C235.82 314.053 236.219 312.109 236.472 310.143C213.866 305.8 151.56 312.099 150.951 312.328L150.849 312.455ZM258.774 361.35C256.034 352.136 251.329 343.626 244.981 336.407C244.722 336.151 244.372 336.009 244.007 336.011C243.643 336.013 243.294 336.16 243.038 336.42C242.782 336.679 242.64 337.029 242.642 337.394C242.645 337.758 242.792 338.107 243.051 338.363C243.051 338.363 253.871 350.174 256.361 363.509C257.656 370.519 254.659 371.129 254.176 370.773C251.636 357.235 241.832 342.706 241.476 341.995C241.273 341.688 240.962 341.468 240.605 341.379C240.247 341.289 239.87 341.337 239.546 341.512C239.251 341.726 239.042 342.037 238.954 342.39C238.865 342.743 238.904 343.116 239.063 343.443C239.063 343.671 249.223 358.429 251.763 371.383C251.509 374.761 248.842 374.532 248.131 374.278C246.912 361.934 238.682 349.107 238.454 348.624C238.235 348.328 237.92 348.118 237.563 348.029C237.206 347.941 236.829 347.981 236.498 348.142C236.203 348.356 235.994 348.666 235.906 349.019C235.817 349.372 235.856 349.745 236.015 350.072C236.015 350.326 244.245 363.153 245.21 375.015C244.981 378.876 241.781 375.98 238.2 365.084C236.437 358.795 234.001 352.715 230.935 346.948C232.866 338.464 236.015 322.488 236.015 322.488C236.498 322.488 245.718 325.764 254.405 341.868C262.304 356.727 258.875 361.223 258.875 361.223L258.774 361.35ZM260.958 342.706C260.298 343.422 259.389 343.858 258.418 343.925C256.074 338.277 252.707 333.111 248.487 328.685C260.094 332.673 262.507 341.131 261.06 342.579L260.958 342.706ZM366.47 127.34C366.944 124.735 366.514 122.046 365.25 119.72C362.914 117.383 339.368 102.244 341.552 98.4344C343.737 94.6244 349.172 99.3996 353.16 102.067C356.31 104.607 358.24 105.927 359.688 104.962C361.136 103.997 360.958 102.27 355.827 89.2396C353.439 83.169 350.747 76.1332 349.045 70.342C346.277 61.3504 346.15 60.436 347.343 59.9534C350.264 58.5056 358.621 76.8444 361.872 86.09C362.016 86.4112 362.259 86.6782 362.565 86.8518C362.871 87.0254 363.224 87.0967 363.574 87.0552L366.724 86.3186C367.073 86.2234 367.371 85.9936 367.552 85.6795C367.733 85.3654 367.782 84.9924 367.689 84.6422C367.689 84.6422 365.936 76.4126 364.768 67.929C362.761 53.1716 364.285 50.5046 364.539 50.149C365.022 50.3776 367.079 52.0794 370.102 66.3542C371.753 74.3552 372.642 82.3308 372.642 82.5594C372.674 82.9122 372.844 83.2381 373.115 83.4664C373.386 83.6946 373.736 83.8068 374.09 83.7786L378.687 83.296C378.849 83.3032 379.011 83.2766 379.162 83.2179C379.313 83.1591 379.45 83.0696 379.565 82.9549C379.68 82.8402 379.769 82.7029 379.828 82.5517C379.887 82.4006 379.913 82.2388 379.906 82.0768C381.1 66.8368 383.284 55.9402 384.732 54.1368C386.18 56.6768 385.697 70.088 384.504 82.0768C384.475 82.426 384.584 82.7726 384.807 83.043C385.03 83.3133 385.349 83.4861 385.697 83.5246L389.101 84.0072C389.385 84.0423 389.674 83.9937 389.931 83.8673C390.188 83.741 390.403 83.5425 390.549 83.296C395.476 73.136 399.744 66.1002 401.674 64.1698C401.674 68.9196 395.705 83.9056 395.146 86.6742C393.571 110.347 384.504 114.335 383.284 126.603C378.433 126.73 371.905 126.959 366.571 127.213L366.47 127.34Z" fill="#146746"/>
<path d="M237.92 128.434C238.271 128.462 238.622 128.382 238.926 128.205C239.23 128.028 239.473 127.762 239.622 127.443C240.149 124.913 241.508 122.632 243.483 120.965C245.459 119.298 247.936 118.342 250.519 118.248C250.895 118.224 251.249 118.064 251.516 117.798C251.782 117.531 251.942 117.177 251.966 116.801C251.937 116.426 251.775 116.075 251.51 115.809C251.245 115.544 250.893 115.382 250.519 115.353C239.393 115.353 236.955 126.478 236.955 126.732C236.868 127.085 236.919 127.459 237.099 127.775C237.278 128.092 237.572 128.327 237.92 128.434Z" fill="#146746"/>
<path d="M191.616 137.857C191.449 137.952 191.303 138.079 191.185 138.23C191.067 138.382 190.981 138.555 190.93 138.741C190.879 138.926 190.866 139.119 190.89 139.309C190.914 139.5 190.975 139.684 191.07 139.851C191.165 140.017 191.292 140.164 191.444 140.281C191.595 140.399 191.769 140.486 191.954 140.537C192.139 140.587 192.332 140.601 192.523 140.577C192.713 140.553 192.897 140.492 193.064 140.397C194.842 139.221 196.81 138.362 198.88 137.857C200.737 137.348 202.687 137.28 204.575 137.66C206.463 138.039 208.235 138.854 209.752 140.041C210.006 140.27 210.234 140.27 210.717 140.27C210.907 140.267 211.095 140.222 211.266 140.139C211.437 140.056 211.588 139.935 211.707 139.787C211.833 139.65 211.927 139.488 211.983 139.311C212.039 139.134 212.055 138.947 212.031 138.763C212.007 138.579 211.943 138.402 211.843 138.246C211.743 138.089 211.61 137.956 211.453 137.857C202.741 130.592 191.616 137.857 191.616 137.857Z" fill="#146746"/>
<path d="M238.809 150.429C232.23 152.233 220.165 155.763 220.165 155.763C218.946 156.017 219.2 157.211 219.2 157.694C220.116 159.78 221.599 161.566 223.481 162.851C225.362 164.135 227.567 164.865 229.843 164.958C231.469 164.929 233.068 164.541 234.527 163.823C235.986 163.104 237.268 162.072 238.282 160.801C239.297 159.53 240.018 158.05 240.394 156.468C240.77 154.886 240.793 153.24 240.46 151.649C240.432 151.46 240.367 151.279 240.269 151.115C240.171 150.952 240.041 150.809 239.888 150.696C239.734 150.583 239.56 150.501 239.375 150.455C239.19 150.409 238.997 150.401 238.809 150.429ZM232.84 161.58C231.022 162.191 229.05 162.165 227.249 161.504C225.448 160.844 223.926 159.59 222.934 157.948C226.083 156.983 233.094 155.052 238.174 153.579C238.221 155.3 237.733 156.994 236.778 158.427C235.823 159.859 234.447 160.961 232.84 161.58Z" fill="#146746"/>
<path d="M180.719 153.579C178.896 153.1 177.035 152.777 175.157 152.613C174.804 152.585 174.453 152.697 174.182 152.926C173.911 153.154 173.741 153.48 173.709 153.833C173.68 154.182 173.789 154.528 174.012 154.799C174.235 155.069 174.554 155.242 174.903 155.28C176.62 155.461 178.319 155.784 179.983 156.246C180.237 156.246 181.456 156.5 181.685 155.28C181.73 154.93 181.661 154.575 181.487 154.268C181.313 153.961 181.043 153.719 180.719 153.579Z" fill="#146746"/>
<path d="M316 135.442C315.917 135.133 315.724 134.865 315.457 134.687C315.191 134.51 314.869 134.435 314.552 134.477L312.012 134.959L311.047 129.625C311.042 129.455 310.996 129.288 310.914 129.139C310.831 128.99 310.714 128.863 310.572 128.769C310.431 128.674 310.268 128.615 310.099 128.596C309.93 128.577 309.758 128.599 309.599 128.66C309.429 128.665 309.262 128.711 309.113 128.793C308.964 128.876 308.837 128.993 308.743 129.135C308.648 129.276 308.589 129.439 308.57 129.608C308.551 129.777 308.573 129.949 308.634 130.108L309.599 135.67C308.38 135.924 307.415 136.153 307.059 136.153C306.748 136.242 306.479 136.439 306.302 136.71C306.125 136.98 306.051 137.306 306.094 137.626C306.194 137.876 306.356 138.095 306.565 138.264C306.774 138.433 307.023 138.546 307.288 138.591C307.288 138.591 308.736 138.337 309.828 138.109L310.539 141.741C310.566 141.902 310.626 142.055 310.714 142.192C310.803 142.329 310.918 142.446 311.054 142.537C311.19 142.627 311.342 142.689 311.503 142.718C311.663 142.747 311.828 142.743 311.987 142.706C312.723 142.452 313.206 141.97 312.952 141.233L312.241 137.372C313.028 137.134 313.836 136.972 314.654 136.89C314.85 136.943 315.057 136.941 315.253 136.885C315.448 136.829 315.625 136.721 315.763 136.572C315.902 136.423 315.997 136.239 316.039 136.04C316.081 135.841 316.067 135.634 316 135.442Z" fill="#146746"/>
<path d="M402.639 19.5159H400.099V15.6551C400.124 15.482 400.112 15.3055 400.063 15.1376C400.013 14.9696 399.929 14.8142 399.814 14.6819C399.7 14.5496 399.558 14.4435 399.399 14.3708C399.24 14.298 399.067 14.2604 398.892 14.2604C398.717 14.2604 398.544 14.298 398.385 14.3708C398.226 14.4435 398.085 14.5496 397.97 14.6819C397.856 14.8142 397.771 14.9696 397.722 15.1376C397.673 15.3055 397.661 15.482 397.686 15.6551V19.5159H395.984C395.811 19.4907 395.634 19.5031 395.466 19.5522C395.299 19.6012 395.143 19.6859 395.011 19.8003C394.878 19.9148 394.772 20.0564 394.7 20.2155C394.627 20.3746 394.589 20.5475 394.589 20.7224C394.589 20.8973 394.627 21.0702 394.7 21.2293C394.772 21.3884 394.878 21.53 395.011 21.6445C395.143 21.7589 395.299 21.8436 395.466 21.8926C395.634 21.9417 395.811 21.9541 395.984 21.9289H397.686V25.8151C397.661 25.9882 397.673 26.1647 397.722 26.3326C397.771 26.5006 397.856 26.6559 397.97 26.7883C398.085 26.9206 398.226 27.0267 398.385 27.0994C398.544 27.1722 398.717 27.2098 398.892 27.2098C399.067 27.2098 399.24 27.1722 399.399 27.0994C399.558 27.0267 399.7 26.9206 399.814 26.7883C399.929 26.6559 400.013 26.5006 400.063 26.3326C400.112 26.1647 400.124 25.9882 400.099 25.8151V21.9289H402.639C402.929 21.8867 403.194 21.7416 403.385 21.52C403.577 21.2985 403.682 21.0153 403.682 20.7224C403.682 20.4295 403.577 20.1463 403.385 19.9248C403.194 19.7032 402.929 19.5581 402.639 19.5159Z" fill="#146746"/>
<path d="M436.497 39.3538C436.369 39.3696 436.24 39.3573 436.117 39.3179C435.994 39.2784 435.881 39.2127 435.786 39.1252C435.626 39.0287 435.489 38.8974 435.387 38.7409C435.284 38.5844 435.219 38.4067 435.194 38.2212C435.17 38.0357 435.187 37.8471 435.246 37.6694C435.305 37.4917 435.402 37.3295 435.532 37.1948C440.206 30.5554 444.108 23.4059 447.165 15.8842C447.295 15.569 447.544 15.3175 447.858 15.1844C448.171 15.0512 448.525 15.0472 448.842 15.173C449.007 15.2254 449.159 15.3125 449.288 15.4283C449.417 15.5441 449.52 15.686 449.589 15.8447C449.659 16.0033 449.694 16.175 449.692 16.3482C449.69 16.5215 449.652 16.6923 449.578 16.8494C444.625 31.2004 436.98 39.3538 436.497 39.3538Z" fill="#146746"/>
<path d="M436.497 51.4696C435.05 51.4696 434.821 49.7678 435.786 48.8026C436.015 48.8026 448.486 42.3764 459.256 26.5522C459.478 26.2626 459.806 26.0731 460.168 26.0254C460.53 25.9778 460.897 26.0759 461.186 26.2982C461.476 26.5205 461.665 26.8488 461.713 27.2108C461.761 27.5729 461.663 27.939 461.44 28.2286C455.139 37.8886 446.578 45.8661 436.497 51.4696Z" fill="#146746"/>
<path d="M312.85 43.724C307.639 42.1891 302.948 39.2549 299.287 35.2404C299.055 34.9725 298.927 34.6298 298.927 34.2752C298.927 33.9206 299.055 33.5779 299.287 33.31C299.559 33.0758 299.906 32.947 300.265 32.947C300.624 32.947 300.971 33.0758 301.243 33.31C304.568 36.7044 308.613 39.3085 313.079 40.93C313.266 40.9711 313.442 41.0501 313.597 41.162C313.752 41.2739 313.882 41.4164 313.979 41.5807C314.077 41.7449 314.14 41.9275 314.164 42.117C314.188 42.3065 314.174 42.499 314.12 42.6826C314.111 42.8366 314.071 42.9871 314.001 43.1245C313.93 43.262 313.833 43.3835 313.713 43.4813C313.594 43.5791 313.456 43.6512 313.307 43.693C313.159 43.7347 313.003 43.7453 312.85 43.724Z" fill="#146746"/>
<path d="M312.114 48.32C307.674 48.0994 303.284 47.288 299.058 45.907C298.882 45.86 298.717 45.7785 298.573 45.6671C298.429 45.5558 298.309 45.4169 298.219 45.2584C298.129 45.1 298.072 44.9253 298.05 44.7445C298.028 44.5636 298.043 44.3803 298.093 44.2052C298.137 44.0302 298.216 43.8659 298.325 43.7219C298.434 43.578 298.57 43.4575 298.727 43.3674C298.883 43.2774 299.056 43.2197 299.235 43.1978C299.414 43.1759 299.596 43.1903 299.769 43.24C303.766 44.5268 307.919 45.2617 312.114 45.4244C312.494 45.4423 312.855 45.5999 313.127 45.867C313.399 46.1341 313.562 46.4919 313.587 46.8722C313.333 47.5834 312.85 48.32 312.114 48.32Z" fill="#146746"/>
<path d="M346.962 30.1603C346.962 30.1603 337.844 30.1603 335.355 22.5403C335.087 21.8399 334.925 21.1038 334.872 20.3559C332.451 20.4846 330.042 19.9434 327.909 18.7918C325.776 17.6401 324.002 15.9226 322.782 13.8281C321.773 11.871 321.226 9.70891 321.182 7.50758C321.138 5.30625 321.598 3.12405 322.528 1.12812C323.061 -0.446677 326.16 0.772522 324.941 2.57592C324.206 4.17681 323.847 5.92446 323.891 7.68534C323.935 9.44623 324.381 11.1737 325.195 12.7359C326.15 14.3641 327.534 15.6987 329.196 16.5945C330.857 17.4903 332.733 17.9128 334.618 17.8159C335.091 15.441 336.089 13.2019 337.539 11.2627C338.177 10.3801 339.081 9.72569 340.119 9.39603C341.157 9.06638 342.273 9.0789 343.303 9.43176C344.333 9.78463 345.223 10.4591 345.84 11.3559C346.458 12.2526 346.771 13.3241 346.734 14.4123C345.997 17.3079 343.102 20.2289 337.285 20.4575C337.285 24.7247 342.543 26.9345 346.734 27.7219C347.75 28.1029 348.867 30.1603 346.962 30.1603ZM340.206 12.7359C339.091 14.0526 338.338 15.6371 338.022 17.3333C342.365 16.8507 344.295 14.7933 344.549 13.4725C344.6 12.5073 342.619 10.3229 340.206 12.7359Z" fill="#00D47E"/>
<path d="M449.807 158.429C445.533 158.443 441.403 156.888 438.199 154.06C434.776 151.24 432.463 147.299 431.671 142.935C431.671 142.551 431.824 142.182 432.095 141.911C432.367 141.639 432.735 141.487 433.119 141.487C433.503 141.487 433.871 141.639 434.143 141.911C434.414 142.182 434.567 142.551 434.567 142.935C435.365 146.526 437.319 149.756 440.129 152.129C441.847 153.627 443.885 154.711 446.086 155.301C448.287 155.891 450.593 155.97 452.829 155.533C454.326 155.335 455.745 154.748 456.944 153.831C455.426 152.913 454.122 151.682 453.119 150.218C452.115 148.755 451.437 147.095 451.128 145.348C450.848 141.487 453.668 136.889 459.103 140.268C462.786 142.604 463.218 149.843 461.059 152.968C461.288 152.968 470.559 158.606 482.09 147.176C482.362 146.942 482.709 146.813 483.068 146.813C483.427 146.813 483.774 146.942 484.046 147.176C484.278 147.444 484.406 147.787 484.406 148.142C484.406 148.496 484.278 148.839 484.046 149.107C474.064 158.733 465.174 157.336 460.805 155.635C460.322 155.406 459.84 155.406 459.357 155.152C456.696 157.401 453.288 158.57 449.807 158.429ZM453.82 144.865C454.132 146.264 454.749 147.577 455.627 148.71C456.505 149.843 457.623 150.768 458.9 151.418C459.091 150.833 459.329 150.264 459.611 149.716C461.44 141.741 453.439 138.82 453.82 144.865Z" fill="#00D47E"/>
</svg>
