<svg width="32" height="32" viewBox="0 0 32 32" fill="none" xmlns="http://www.w3.org/2000/svg">
<g clip-path="url(#clip0_29_979)">
<path d="M15.7714 2.79893C19.9243 2.79893 20.4161 2.81714 22.0493 2.89C23.5671 2.95679 24.3868 3.21179 24.9332 3.42429C25.6557 3.70357 26.1779 4.04357 26.7182 4.58393C27.2646 5.13036 27.5986 5.64643 27.8779 6.36893C28.0904 6.91536 28.3454 7.74107 28.4121 9.25286C28.485 10.8921 28.5032 11.3839 28.5032 15.5307C28.5032 19.6836 28.485 20.1754 28.4121 21.8086C28.3454 23.3264 28.0904 24.1461 27.8779 24.6925C27.5986 25.415 27.2586 25.9371 26.7182 26.4775C26.1718 27.0239 25.6557 27.3579 24.9332 27.6371C24.3868 27.8496 23.5611 28.1046 22.0493 28.1714C20.41 28.2443 19.9182 28.2625 15.7714 28.2625C11.6186 28.2625 11.1268 28.2443 9.49358 28.1714C7.97572 28.1046 7.15608 27.8496 6.60965 27.6371C5.88715 27.3579 5.36501 27.0179 4.82465 26.4775C4.27822 25.9311 3.94429 25.415 3.66501 24.6925C3.45251 24.1461 3.19751 23.3204 3.13072 21.8086C3.05786 20.1693 3.03965 19.6775 3.03965 15.5307C3.03965 11.3779 3.05786 10.8861 3.13072 9.25286C3.19751 7.735 3.45251 6.91536 3.66501 6.36893C3.94429 5.64643 4.28429 5.12429 4.82465 4.58393C5.37108 4.0375 5.88715 3.70357 6.60965 3.42429C7.15608 3.21179 7.98179 2.95679 9.49358 2.89C11.1268 2.81714 11.6186 2.79893 15.7714 2.79893ZM15.7714 0C11.5518 0 11.0236 0.0182143 9.36608 0.0910714C7.71465 0.163929 6.57929 0.431071 5.59572 0.813571C4.56965 1.21429 3.70143 1.7425 2.83929 2.61071C1.97108 3.47286 1.44286 4.34107 1.04215 5.36107C0.659648 6.35071 0.392505 7.48 0.319648 9.13143C0.246791 10.795 0.228577 11.3232 0.228577 15.5429C0.228577 19.7625 0.246791 20.2907 0.319648 21.9482C0.392505 23.5996 0.659648 24.735 1.04215 25.7186C1.44286 26.7446 1.97108 27.6129 2.83929 28.475C3.70143 29.3371 4.56965 29.8714 5.58965 30.2661C6.57929 30.6486 7.70858 30.9157 9.36001 30.9886C11.0175 31.0614 11.5457 31.0796 15.7654 31.0796C19.985 31.0796 20.5132 31.0614 22.1707 30.9886C23.8221 30.9157 24.9575 30.6486 25.9411 30.2661C26.9611 29.8714 27.8293 29.3371 28.6914 28.475C29.5536 27.6129 30.0879 26.7446 30.4825 25.7246C30.865 24.735 31.1321 23.6057 31.205 21.9543C31.2779 20.2968 31.2961 19.7686 31.2961 15.5489C31.2961 11.3293 31.2779 10.8011 31.205 9.14357C31.1321 7.49214 30.865 6.35679 30.4825 5.37321C30.1 4.34107 29.5718 3.47286 28.7036 2.61071C27.8414 1.74857 26.9732 1.21429 25.9532 0.819643C24.9636 0.437143 23.8343 0.17 22.1829 0.0971429C20.5193 0.0182143 19.9911 0 15.7714 0Z" fill="white"/>
<path d="M15.7714 7.55908C11.3636 7.55908 7.78751 11.1352 7.78751 15.543C7.78751 19.9509 11.3636 23.5269 15.7714 23.5269C20.1793 23.5269 23.7554 19.9509 23.7554 15.543C23.7554 11.1352 20.1793 7.55908 15.7714 7.55908ZM15.7714 20.7219C12.9118 20.7219 10.5925 18.4027 10.5925 15.543C10.5925 12.6834 12.9118 10.3641 15.7714 10.3641C18.6311 10.3641 20.9504 12.6834 20.9504 15.543C20.9504 18.4027 18.6311 20.7219 15.7714 20.7219Z" fill="white"/>
<path d="M25.935 7.24333C25.935 8.27547 25.0972 9.10726 24.0711 9.10726C23.0389 9.10726 22.2072 8.2694 22.2072 7.24333C22.2072 6.21118 23.045 5.37939 24.0711 5.37939C25.0972 5.37939 25.935 6.21725 25.935 7.24333Z" fill="white"/>
</g>
<defs>
<clipPath id="clip0_29_979">
<rect width="31.0857" height="31.0857" fill="white" transform="translate(0.228577)"/>
</clipPath>
</defs>
</svg>
