<svg width="248" height="66" viewBox="0 0 248 66" fill="none" xmlns="http://www.w3.org/2000/svg">
<path fill-rule="evenodd" clip-rule="evenodd" d="M56.0305 5.99249C53.227 5.06175 50.343 4.39772 47.4297 3.96664C36.1628 2.34046 23.6483 4.05108 14.0034 10.3592C10.7807 12.4967 7.9053 15.2284 5.86126 18.5281C4.87781 20.0973 4.1029 21.8122 3.70448 23.6262C3.13267 26.1582 3.36811 28.8741 4.44533 31.2403C4.75511 31.9132 5.11403 32.5667 5.57295 33.1506C5.71804 33.3184 5.97432 33.1219 5.84493 32.9385C5.74323 32.7984 5.64339 32.6476 5.55428 32.4978C4.19512 30.2146 3.72889 27.4348 4.17708 24.8236C4.50956 22.8179 5.35259 20.9245 6.45951 19.2283C8.82359 15.5637 12.2507 12.6788 16.032 10.5549C27.4929 4.2321 42.2572 3.6833 54.6499 7.55273C53.9011 11.963 53.182 16.3439 52.0992 20.6699C51.9436 21.266 51.7526 22.0134 51.5826 22.6054C50.1737 27.6796 48.1295 32.6474 44.9987 36.9106C42.3939 40.4833 39.0403 43.5699 35.0204 45.4517C29.9834 47.6881 23.9444 47.6847 18.9141 45.4335C16.2884 44.2636 13.9824 42.4416 12.1685 40.2169C13.2382 38.4588 14.4943 36.7991 15.8746 35.2738C17.2366 33.7643 18.7088 32.3739 20.2571 31.0408C26.0057 26.1711 32.3877 22.0905 38.5629 17.767C38.901 17.5474 39.061 17.1176 38.9217 16.7189C38.7585 16.2511 38.2472 16.004 37.7796 16.167C24.4392 20.9942 12.328 29.5134 3.49096 40.6232C2.24718 42.2189 1.08334 43.8764 0.0197996 45.5948C-0.0176786 45.6557 -0.000572331 45.7357 0.0594549 45.7756C0.120726 45.8159 0.203303 45.7993 0.243736 45.7383C1.35533 44.0627 2.56303 42.4539 3.84708 40.9099C11.0314 32.442 20.1925 25.6301 30.3073 21.0128C30.186 21.0926 30.0641 21.1724 29.9425 21.2523C24.3719 24.9521 18.6777 28.6859 14.0203 33.5573C12.2574 35.4105 10.6818 37.4429 9.36088 39.6395C9.08952 40.09 9.10351 40.6819 9.44019 41.1263C10.8964 43.1304 12.7058 44.9126 14.772 46.2989C15.978 47.1135 17.2759 47.7967 18.6259 48.3394C24.3004 50.5998 30.9284 50.4474 36.4618 47.8439C42.9866 44.6567 47.7852 38.7324 50.8242 32.2538C52.1771 29.3672 53.2065 26.3357 53.9985 23.2556C54.586 20.9962 55.0623 18.6187 55.443 16.3162C55.9606 13.2076 56.3391 10.0865 56.6804 6.96101C56.7279 6.53071 56.4599 6.11643 56.0302 5.99249H56.0305Z" fill="url(#paint0_linear_23_7)"/>
<path d="M176.872 65.6387V47.554H178.912V55.0211H179.275C179.446 54.6415 179.704 54.2895 180.048 53.9616C180.411 53.6176 180.866 53.3336 181.419 53.1091C181.987 52.8848 182.701 52.7736 183.563 52.7736C184.51 52.7736 185.354 52.9806 186.093 53.3935C186.851 53.7891 187.455 54.3746 187.903 55.1503C188.35 55.9084 188.574 56.855 188.574 57.9915V65.6391H186.533V58.1467C186.533 56.8894 186.214 55.9775 185.577 55.4092C184.957 54.841 184.114 54.5567 183.045 54.5567C181.822 54.5567 180.824 54.9523 180.048 55.7453C179.292 56.5365 178.912 57.717 178.912 59.2832V65.6391H176.871L176.872 65.6387ZM196.952 66C195.677 66 194.558 65.7331 193.594 65.1991C192.629 64.6481 191.88 63.8824 191.346 62.8996C190.812 61.9185 190.545 60.782 190.545 59.4901V59.1808C190.545 57.8717 190.812 56.7256 191.346 55.7448C191.88 54.762 192.621 54.0037 193.567 53.4702C194.515 52.9193 195.6 52.6444 196.823 52.6444C198.011 52.6444 199.061 52.9019 199.975 53.4181C200.887 53.9191 201.603 54.6413 202.119 55.5892C202.635 56.5361 202.895 57.647 202.895 58.9219V59.8509H192.586C192.638 61.2121 193.078 62.2797 193.903 63.0546C194.73 63.8129 195.763 64.1916 197.003 64.1916C198.09 64.1916 198.925 63.942 199.51 63.4428C200.096 62.9434 200.543 62.3486 200.854 61.6592L202.611 62.5131C202.352 63.0472 201.99 63.5806 201.525 64.1146C201.077 64.6481 200.484 65.0957 199.743 65.4584C199.019 65.8191 198.09 65.9998 196.952 65.9998V66ZM192.611 58.1731H200.827C200.758 57.002 200.353 56.0883 199.614 55.4338C198.89 54.7792 197.959 54.4527 196.823 54.4527C195.669 54.4527 194.723 54.7792 193.982 55.4338C193.24 56.0883 192.784 57.0018 192.611 58.1731ZM208.78 66C207.9 66 207.1 65.846 206.376 65.535C205.653 65.2257 205.084 64.7769 204.672 64.1917C204.259 63.6062 204.051 62.892 204.051 62.0475C204.051 61.1869 204.259 60.4808 204.672 59.9299C205.084 59.3617 205.653 58.9395 206.376 58.663C207.1 58.3711 207.91 58.2252 208.804 58.2252H213.068V57.2943C213.068 56.3995 212.801 55.6929 212.268 55.1767C211.749 54.6584 210.975 54.4012 209.941 54.4012C208.925 54.4012 208.133 54.6508 207.564 55.15C206.996 55.6319 206.609 56.2865 206.403 57.1136L204.491 56.4933C204.696 55.7871 205.024 55.15 205.472 54.5818C205.919 53.9963 206.514 53.5311 207.255 53.1859C208.013 52.8251 208.917 52.6444 209.968 52.6444C211.586 52.6444 212.843 53.0666 213.74 53.9099C214.635 54.7371 215.082 55.9083 215.082 57.4229V63.1336C215.082 63.6502 215.324 63.9073 215.805 63.9073H216.969V65.6386H215.185C214.617 65.6386 214.16 65.4834 213.817 65.1741C213.473 64.8461 213.3 64.416 213.3 63.8822V63.7532H212.989C212.801 64.0798 212.542 64.425 212.215 64.7864C211.905 65.1299 211.475 65.4143 210.924 65.6384C210.373 65.8801 209.657 65.9997 208.78 65.9997L208.78 66ZM209.012 64.2432C210.217 64.2432 211.191 63.89 211.932 63.1851C212.688 62.4617 213.068 61.4538 213.068 60.162V59.8778H208.883C208.073 59.8778 207.402 60.0584 206.868 60.4212C206.351 60.7646 206.092 61.2907 206.092 61.9954C206.092 62.7021 206.359 63.2527 206.893 63.6502C207.444 64.0457 208.15 64.2432 209.012 64.2432ZM218.214 47.5539H220.255V65.6386H218.214V47.5539ZM227.646 65.6386C226.923 65.6386 226.364 65.4411 225.967 65.0438C225.588 64.6481 225.399 64.1053 225.399 63.4174V54.7886H221.601V53.0056H225.399V48.5097H227.439V53.0056H231.574V54.7886H227.439V63.1069C227.439 63.6233 227.69 63.8824 228.19 63.8824H231.006V65.6387H227.646V65.6386ZM233.329 65.6386V47.5539H235.37V55.0209H235.732C235.905 54.6413 236.162 54.2894 236.508 53.9614C236.869 53.6174 237.326 53.3335 237.876 53.1089C238.445 52.8847 239.159 52.7735 240.021 52.7735C240.967 52.7735 241.812 52.9805 242.553 53.3933C243.309 53.789 243.912 54.3745 244.361 55.1501C244.808 55.9083 245.033 56.8549 245.033 57.9913V65.6389H242.991V58.1465C242.991 56.8892 242.672 55.9773 242.036 55.4091C241.416 54.8408 240.572 54.5566 239.504 54.5566C238.281 54.5566 237.282 54.9522 236.508 55.7451C235.75 56.5364 235.37 57.7169 235.37 59.283V65.6389H233.329L233.329 65.6386Z" fill="#244B55"/>
<path d="M63.3447 43.1016V13.1597H70.8302V16.4195H71.9168C72.4601 15.3931 73.3052 14.5481 74.5126 13.7632C75.7198 13.0388 77.2894 12.6766 79.2816 12.6766C81.3944 12.6766 83.145 13.0992 84.4127 13.884C85.6805 14.7291 86.7067 15.8158 87.3707 17.1438H88.4573C89.1213 15.8761 90.0872 14.7896 91.3549 13.9445C92.6226 13.0993 94.3732 12.6766 96.6671 12.6766C98.5384 12.6766 100.229 13.0388 101.738 13.8237C103.247 14.6086 104.454 15.8156 105.36 17.3854C106.265 19.0153 106.688 21.0072 106.688 23.422V43.1016H99.0816V23.9653C99.0816 22.3354 98.6591 21.0677 97.8139 20.2227C96.9688 19.4378 95.7615 19.0153 94.2522 19.0153C92.5016 19.0153 91.1736 19.5586 90.268 20.6452C89.3021 21.7921 88.8191 23.3616 88.8191 25.4142V43.1016H81.2131V23.9653C81.2131 22.3354 80.7906 21.0677 79.9452 20.2227C79.1001 19.4378 77.8928 19.0153 76.3835 19.0153C74.6331 19.0153 73.3049 19.5586 72.3993 20.6452C71.4335 21.7921 70.9506 23.3616 70.9506 25.4142V43.1016H63.3444H63.3447Z" fill="#244B55"/>
<path d="M110.145 43.1016V13.1597H117.751V43.1016H110.145ZM113.948 9.65848C112.559 9.65848 111.412 9.23596 110.507 8.33057C109.541 7.42503 109.058 6.27814 109.058 4.82924C109.058 3.38034 109.541 2.23345 110.507 1.32791C111.412 0.422524 112.559 0 113.948 0C115.336 0 116.543 0.422524 117.449 1.32791C118.354 2.23345 118.837 3.38034 118.837 4.82924C118.837 6.27814 118.354 7.42503 117.449 8.33057C116.543 9.23596 115.336 9.65848 113.948 9.65848Z" fill="#244B55"/>
<path d="M121.448 43.1016V13.1597H128.934V17.0835H130.021C130.503 16.0571 131.409 15.0311 132.737 14.0652C134.065 13.1597 136.057 12.6766 138.774 12.6766C141.128 12.6766 143.18 13.22 144.931 14.2462C146.682 15.3328 148.01 16.7815 148.976 18.6529C149.942 20.5243 150.425 22.7578 150.425 25.2329V43.1014H142.818V25.8366C142.818 23.603 142.275 21.9127 141.188 20.7659C140.042 19.6188 138.472 19.0755 136.419 19.0755C134.065 19.0755 132.254 19.8603 130.986 21.3694C129.719 22.9388 129.055 25.1121 129.055 27.889V43.1014H121.448V43.1016Z" fill="#244B55"/>
<path d="M164.505 43.1016C162.513 43.1016 160.944 42.4981 159.736 41.2302C158.469 40.0228 157.865 38.393 157.865 36.3406V19.4379H150.379V13.1598H157.865V3.86334H165.471V13.1598H173.681V19.4379H165.471V35.0125C165.471 36.2199 166.015 36.8235 167.161 36.8235H172.957V43.1016H164.505H164.505Z" fill="#244B55"/>
<path d="M175.81 43.1016V0.844849H183.416V43.1016H175.81Z" fill="#244B55"/>
<path d="M187.114 43.1016V13.1597H194.72V43.1016H187.114ZM190.917 9.65848C189.529 9.65848 188.382 9.23596 187.476 8.33057C186.51 7.42503 186.027 6.27814 186.027 4.82924C186.027 3.38034 186.51 2.23345 187.476 1.32791C188.382 0.422524 189.529 0 190.917 0C192.306 0 193.513 0.422524 194.418 1.32791C195.324 2.23345 195.807 3.38034 195.807 4.82924C195.807 6.27814 195.324 7.42503 194.418 8.33057C193.513 9.23596 192.306 9.65848 190.917 9.65848Z" fill="#244B55"/>
<path d="M203.368 43.1016V19.4379H195.762V13.1598H203.368V7.60603C203.368 5.5536 203.972 3.92369 205.24 2.65596C206.447 1.44857 208.016 0.845032 210.009 0.845032H217.856V7.12317H212.665C211.518 7.12317 210.974 7.72671 210.974 8.9341V13.1598H218.822V19.4379H210.974V43.1016H203.368Z" fill="#244B55"/>
<path d="M232.662 43.9467C229.704 43.9467 227.047 43.3431 224.814 42.0149C222.52 40.7472 220.769 38.9966 219.502 36.6423C218.234 34.3484 217.57 31.6319 217.57 28.4927V27.7684C217.57 24.6292 218.174 21.9128 219.441 19.5585C220.709 17.2645 222.46 15.4536 224.693 14.1857C226.927 12.918 229.583 12.3145 232.541 12.3145C235.499 12.3145 238.034 12.9785 240.207 14.2462C242.381 15.5743 244.071 17.3854 245.278 19.6793C246.485 22.0336 247.089 24.6896 247.089 27.7684V30.3642H225.297C225.357 32.4166 226.142 34.1068 227.591 35.3744C229.039 36.6423 230.79 37.3063 232.903 37.3063C235.016 37.3063 236.585 36.8233 237.612 35.9178C238.638 35.0124 239.362 33.986 239.905 32.8391L246.123 36.0989C245.58 37.1252 244.735 38.2722 243.708 39.4793C242.622 40.7472 241.173 41.7732 239.422 42.6184C237.672 43.524 235.378 43.9465 232.661 43.9465L232.662 43.9467ZM225.357 24.6897H239.362C239.181 22.9391 238.517 21.5506 237.31 20.5245C236.042 19.4981 234.473 18.9549 232.48 18.9549C230.428 18.9549 228.798 19.4983 227.591 20.5245C226.383 21.5507 225.659 22.9391 225.357 24.6897H225.357Z" fill="#244B55"/>
<defs>
<linearGradient id="paint0_linear_23_7" x1="24.1648" y1="8.64426" x2="33.3508" y2="48.3741" gradientUnits="userSpaceOnUse">
<stop stop-color="#A6CB68"/>
<stop offset="1" stop-color="#00AB8B"/>
</linearGradient>
</defs>
</svg>
