<svg width="32" height="32" viewBox="0 0 32 32" fill="none" xmlns="http://www.w3.org/2000/svg">
<g clip-path="url(#clip0_29_980)">
<path d="M29.4703 0H2.9807C1.71177 0 0.685699 1.00179 0.685699 2.24036V28.8393C0.685699 30.0779 1.71177 31.0857 2.9807 31.0857H29.4703C30.7393 31.0857 31.7714 30.0779 31.7714 28.8454V2.24036C31.7714 1.00179 30.7393 0 29.4703 0ZM9.9082 26.4896H5.29391V11.6511H9.9082V26.4896ZM7.60106 9.62929C6.11963 9.62929 4.92356 8.43321 4.92356 6.95786C4.92356 5.4825 6.11963 4.28643 7.60106 4.28643C9.07641 4.28643 10.2725 5.4825 10.2725 6.95786C10.2725 8.42714 9.07641 9.62929 7.60106 9.62929ZM27.1753 26.4896H22.5671V19.2768C22.5671 17.5586 22.5368 15.3425 20.1689 15.3425C17.7707 15.3425 17.4064 17.2186 17.4064 19.1554V26.4896H12.8043V11.6511H17.2243V13.6789H17.285C17.8982 12.5132 19.4039 11.2807 21.6443 11.2807C26.3132 11.2807 27.1753 14.3529 27.1753 18.3479V26.4896Z" fill="white"/>
</g>
<defs>
<clipPath id="clip0_29_980">
<rect width="31.0857" height="31.0857" fill="white" transform="translate(0.685699)"/>
</clipPath>
</defs>
</svg>
