<svg width="248" height="66" viewBox="0 0 248 66" fill="none" xmlns="http://www.w3.org/2000/svg">
<path fill-rule="evenodd" clip-rule="evenodd" d="M56.0305 5.99255C53.227 5.06181 50.343 4.39778 47.4297 3.9667C36.1628 2.34052 23.6483 4.05115 14.0034 10.3593C10.7807 12.4968 7.9053 15.2285 5.86126 18.5281C4.87781 20.0974 4.1029 21.8122 3.70448 23.6263C3.13267 26.1583 3.36811 28.8741 4.44533 31.2404C4.75511 31.9133 5.11403 32.5667 5.57295 33.1507C5.71804 33.3185 5.97432 33.1219 5.84493 32.9386C5.74323 32.7985 5.64339 32.6476 5.55428 32.4979C4.19512 30.2146 3.72889 27.4349 4.17708 24.8237C4.50956 22.8179 5.35259 20.9246 6.45951 19.2284C8.82359 15.5638 12.2507 12.6789 16.032 10.5549C27.4929 4.23216 42.2572 3.68336 54.6499 7.55279C53.9011 11.9631 53.182 16.344 52.0992 20.67C51.9436 21.2661 51.7526 22.0135 51.5826 22.6055C50.1737 27.6797 48.1295 32.6475 44.9987 36.9106C42.3939 40.4834 39.0403 43.5699 35.0204 45.4518C29.9834 47.6882 23.9444 47.6848 18.9141 45.4336C16.2884 44.2637 13.9824 42.4417 12.1685 40.217C13.2382 38.4589 14.4943 36.7991 15.8746 35.2739C17.2366 33.7643 18.7088 32.3739 20.2571 31.0409C26.0057 26.1712 32.3877 22.0906 38.5629 17.7671C38.901 17.5475 39.061 17.1177 38.9217 16.7189C38.7585 16.2511 38.2472 16.004 37.7796 16.167C24.4392 20.9942 12.328 29.5134 3.49096 40.6233C2.24718 42.219 1.08334 43.8764 0.0197996 45.5948C-0.0176786 45.6558 -0.000572331 45.7357 0.0594549 45.7757C0.120726 45.816 0.203303 45.7993 0.243736 45.7384C1.35533 44.0627 2.56303 42.454 3.84708 40.9099C11.0314 32.442 20.1925 25.6302 30.3073 21.0129C30.186 21.0927 30.0641 21.1725 29.9425 21.2524C24.3719 24.9521 18.6777 28.686 14.0203 33.5574C12.2574 35.4106 10.6818 37.443 9.36088 39.6395C9.08952 40.0901 9.10351 40.6819 9.44019 41.1264C10.8964 43.1305 12.7058 44.9126 14.772 46.299C15.978 47.1136 17.2759 47.7967 18.6259 48.3395C24.3004 50.5998 30.9284 50.4474 36.4618 47.844C42.9866 44.6568 47.7852 38.7325 50.8242 32.2539C52.1771 29.3673 53.2065 26.3357 53.9985 23.2557C54.586 20.9963 55.0623 18.6188 55.443 16.3163C55.9606 13.2076 56.3391 10.0865 56.6804 6.96107C56.7279 6.53077 56.4599 6.11649 56.0302 5.99255H56.0305Z" fill="url(#paint0_linear_29_779)"/>
<path d="M176.872 65.6388V47.5541H178.912V55.0211H179.275C179.446 54.6415 179.704 54.2896 180.048 53.9616C180.411 53.6176 180.866 53.3337 181.419 53.1091C181.987 52.8849 182.701 52.7737 183.563 52.7737C184.51 52.7737 185.354 52.9807 186.093 53.3936C186.851 53.7892 187.455 54.3747 187.903 55.1504C188.35 55.9085 188.574 56.8551 188.574 57.9916V65.6391H186.533V58.1468C186.533 56.8894 186.214 55.9775 185.577 55.4093C184.957 54.8411 184.114 54.5568 183.045 54.5568C181.822 54.5568 180.824 54.9524 180.048 55.7453C179.292 56.5366 178.912 57.7171 178.912 59.2832V65.6391H176.871L176.872 65.6388ZM196.952 66.0001C195.677 66.0001 194.558 65.7332 193.594 65.1992C192.629 64.6482 191.88 63.8825 191.346 62.8996C190.812 61.9185 190.545 60.782 190.545 59.4902V59.1809C190.545 57.8718 190.812 56.7257 191.346 55.7449C191.88 54.762 192.621 54.0038 193.567 53.4702C194.515 52.9194 195.6 52.6445 196.823 52.6445C198.011 52.6445 199.061 52.902 199.975 53.4181C200.887 53.9192 201.603 54.6414 202.119 55.5892C202.635 56.5361 202.895 57.6471 202.895 58.922V59.851H192.586C192.638 61.2122 193.078 62.2798 193.903 63.0547C194.73 63.813 195.763 64.1916 197.003 64.1916C198.09 64.1916 198.925 63.942 199.51 63.4428C200.096 62.9435 200.543 62.3487 200.854 61.6593L202.611 62.5132C202.352 63.0472 201.99 63.5806 201.525 64.1146C201.077 64.6482 200.484 65.0958 199.743 65.4584C199.019 65.8192 198.09 65.9999 196.952 65.9999V66.0001ZM192.611 58.1732H200.827C200.758 57.002 200.353 56.0884 199.614 55.4339C198.89 54.7793 197.959 54.4527 196.823 54.4527C195.669 54.4527 194.723 54.7793 193.982 55.4339C193.24 56.0884 192.784 57.0019 192.611 58.1732ZM208.78 66.0001C207.9 66.0001 207.1 65.8461 206.376 65.5351C205.653 65.2258 205.084 64.777 204.672 64.1918C204.259 63.6063 204.051 62.892 204.051 62.0476C204.051 61.187 204.259 60.4808 204.672 59.93C205.084 59.3618 205.653 58.9395 206.376 58.663C207.1 58.3712 207.91 58.2253 208.804 58.2253H213.068V57.2944C213.068 56.3996 212.801 55.6929 212.268 55.1768C211.749 54.6585 210.975 54.4013 209.941 54.4013C208.925 54.4013 208.133 54.6509 207.564 55.15C206.996 55.632 206.609 56.2865 206.403 57.1137L204.491 56.4934C204.696 55.7872 205.024 55.1501 205.472 54.5818C205.919 53.9963 206.514 53.5312 207.255 53.1859C208.013 52.8252 208.917 52.6445 209.968 52.6445C211.586 52.6445 212.843 53.0667 213.74 53.91C214.635 54.7372 215.082 55.9083 215.082 57.423V63.1337C215.082 63.6503 215.324 63.9073 215.805 63.9073H216.969V65.6386H215.185C214.617 65.6386 214.16 65.4835 213.817 65.1741C213.473 64.8462 213.3 64.416 213.3 63.8823V63.7532H212.989C212.801 64.0798 212.542 64.425 212.215 64.7865C211.905 65.13 211.475 65.4144 210.924 65.6385C210.373 65.8802 209.657 65.9998 208.78 65.9998L208.78 66.0001ZM209.012 64.2432C210.217 64.2432 211.191 63.8901 211.932 63.1852C212.688 62.4617 213.068 61.4538 213.068 60.162V59.8779H208.883C208.073 59.8779 207.402 60.0584 206.868 60.4213C206.351 60.7646 206.092 61.2907 206.092 61.9955C206.092 62.7021 206.359 63.2528 206.893 63.6503C207.444 64.0458 208.15 64.2432 209.012 64.2432ZM218.214 47.554H220.255V65.6386H218.214V47.554ZM227.646 65.6386C226.923 65.6386 226.364 65.4412 225.967 65.0438C225.588 64.6482 225.399 64.1053 225.399 63.4175V54.7886H221.601V53.0057H225.399V48.5097H227.439V53.0057H231.574V54.7886H227.439V63.1069C227.439 63.6234 227.69 63.8825 228.19 63.8825H231.006V65.6388H227.646V65.6386ZM233.329 65.6386V47.554H235.37V55.021H235.732C235.905 54.6414 236.162 54.2895 236.508 53.9615C236.869 53.6175 237.326 53.3335 237.876 53.109C238.445 52.8847 239.159 52.7735 240.021 52.7735C240.967 52.7735 241.812 52.9805 242.553 53.3934C243.309 53.789 243.912 54.3745 244.361 55.1502C244.808 55.9083 245.033 56.8549 245.033 57.9914V65.639H242.991V58.1466C242.991 56.8893 242.672 55.9774 242.036 55.4091C241.416 54.8409 240.572 54.5566 239.504 54.5566C238.281 54.5566 237.282 54.9522 236.508 55.7452C235.75 56.5364 235.37 57.7169 235.37 59.2831V65.639H233.329L233.329 65.6386Z" fill="white"/>
<path d="M63.3447 43.1017V13.1598H70.8302V16.4196H71.9168C72.4601 15.3932 73.3052 14.5482 74.5126 13.7633C75.7198 13.0389 77.2894 12.6768 79.2816 12.6768C81.3944 12.6768 83.145 13.0993 84.4127 13.8841C85.6805 14.7292 86.7067 15.8159 87.3707 17.144H88.4573C89.1213 15.8762 90.0872 14.7897 91.3549 13.9446C92.6226 13.0994 94.3732 12.6768 96.6671 12.6768C98.5384 12.6768 100.229 13.0389 101.738 13.8238C103.247 14.6087 104.454 15.8157 105.36 17.3855C106.265 19.0154 106.688 21.0073 106.688 23.4221V43.1017H99.0816V23.9655C99.0816 22.3356 98.6591 21.0678 97.8139 20.2228C96.9688 19.4379 95.7615 19.0154 94.2522 19.0154C92.5016 19.0154 91.1736 19.5587 90.268 20.6453C89.3021 21.7922 88.8191 23.3618 88.8191 25.4144V43.1017H81.2131V23.9655C81.2131 22.3356 80.7906 21.0678 79.9452 20.2228C79.1001 19.4379 77.8928 19.0154 76.3835 19.0154C74.6331 19.0154 73.3049 19.5587 72.3993 20.6453C71.4335 21.7922 70.9506 23.3618 70.9506 25.4144V43.1017H63.3444H63.3447Z" fill="white"/>
<path d="M110.145 43.1016V13.1597H117.751V43.1016H110.145ZM113.948 9.65848C112.559 9.65848 111.412 9.23596 110.507 8.33057C109.541 7.42503 109.058 6.27814 109.058 4.82924C109.058 3.38034 109.541 2.23345 110.507 1.32791C111.412 0.422524 112.559 0 113.948 0C115.336 0 116.543 0.422524 117.449 1.32791C118.354 2.23345 118.837 3.38034 118.837 4.82924C118.837 6.27814 118.354 7.42503 117.449 8.33057C116.543 9.23596 115.336 9.65848 113.948 9.65848Z" fill="white"/>
<path d="M121.448 43.1017V13.1598H128.934V17.0836H130.021C130.503 16.0573 131.409 15.0312 132.737 14.0653C134.065 13.1598 136.057 12.6768 138.774 12.6768C141.128 12.6768 143.18 13.2201 144.931 14.2463C146.682 15.3329 148.01 16.7816 148.976 18.653C149.942 20.5245 150.425 22.7579 150.425 25.233V43.1016H142.818V25.8367C142.818 23.6031 142.275 21.9129 141.188 20.766C140.042 19.6189 138.472 19.0756 136.419 19.0756C134.065 19.0756 132.254 19.8604 130.986 21.3695C129.719 22.9389 129.055 25.1122 129.055 27.8892V43.1016H121.448V43.1017Z" fill="white"/>
<path d="M164.505 43.1015C162.513 43.1015 160.944 42.498 159.736 41.2301C158.469 40.0227 157.865 38.393 157.865 36.3405V19.4379H150.379V13.1597H157.865V3.86328H165.471V13.1597H173.681V19.4379H165.471V35.0125C165.471 36.2199 166.015 36.8234 167.161 36.8234H172.957V43.1015H164.505H164.505Z" fill="white"/>
<path d="M175.81 43.1017V0.844971H183.416V43.1017H175.81Z" fill="white"/>
<path d="M187.114 43.1016V13.1597H194.72V43.1016H187.114ZM190.917 9.65848C189.529 9.65848 188.382 9.23596 187.476 8.33057C186.51 7.42503 186.027 6.27814 186.027 4.82924C186.027 3.38034 186.51 2.23345 187.476 1.32791C188.382 0.422524 189.529 0 190.917 0C192.306 0 193.513 0.422524 194.418 1.32791C195.324 2.23345 195.807 3.38034 195.807 4.82924C195.807 6.27814 195.324 7.42503 194.418 8.33057C193.513 9.23596 192.306 9.65848 190.917 9.65848Z" fill="white"/>
<path d="M203.368 43.1015V19.4379H195.762V13.1597H203.368V7.60597C203.368 5.55354 203.972 3.92362 205.24 2.6559C206.447 1.44851 208.016 0.844971 210.009 0.844971H217.856V7.12311H212.665C211.518 7.12311 210.974 7.72665 210.974 8.93404V13.1597H218.822V19.4379H210.974V43.1015H203.368Z" fill="white"/>
<path d="M232.662 43.9467C229.704 43.9467 227.047 43.3431 224.814 42.0149C222.52 40.7472 220.769 38.9966 219.502 36.6423C218.234 34.3484 217.57 31.6319 217.57 28.4927V27.7684C217.57 24.6292 218.174 21.9128 219.441 19.5585C220.709 17.2645 222.46 15.4536 224.693 14.1857C226.927 12.918 229.583 12.3145 232.541 12.3145C235.499 12.3145 238.034 12.9785 240.207 14.2462C242.381 15.5743 244.071 17.3854 245.278 19.6793C246.485 22.0336 247.089 24.6896 247.089 27.7684V30.3642H225.297C225.357 32.4166 226.142 34.1068 227.591 35.3744C229.039 36.6423 230.79 37.3063 232.903 37.3063C235.016 37.3063 236.585 36.8233 237.612 35.9178C238.638 35.0124 239.362 33.986 239.905 32.8391L246.123 36.0989C245.58 37.1252 244.735 38.2722 243.708 39.4793C242.622 40.7472 241.173 41.7732 239.422 42.6184C237.672 43.524 235.378 43.9465 232.661 43.9465L232.662 43.9467ZM225.357 24.6897H239.362C239.181 22.9391 238.517 21.5506 237.31 20.5245C236.042 19.4981 234.473 18.9549 232.48 18.9549C230.428 18.9549 228.798 19.4983 227.591 20.5245C226.383 21.5507 225.659 22.9391 225.357 24.6897H225.357Z" fill="white"/>
<defs>
<linearGradient id="paint0_linear_29_779" x1="24.1648" y1="8.64432" x2="33.3508" y2="48.3741" gradientUnits="userSpaceOnUse">
<stop stop-color="#A6CB68"/>
<stop offset="1" stop-color="#00AB8B"/>
</linearGradient>
</defs>
</svg>
