<svg width="26" height="26" viewBox="0 0 26 26" fill="none" xmlns="http://www.w3.org/2000/svg">
<path d="M23.8164 11.6169L19.2359 15.6144L20.6081 21.5659C20.6807 21.8771 20.6599 22.2027 20.5485 22.5021C20.437 22.8015 20.2398 23.0615 19.9814 23.2494C19.723 23.4373 19.415 23.5449 19.0958 23.5587C18.7766 23.5725 18.4604 23.4919 18.1868 23.327L12.9959 20.1786L7.81625 23.327C7.54261 23.4919 7.22643 23.5725 6.90724 23.5587C6.58805 23.5449 6.28001 23.4373 6.02164 23.2494C5.76327 23.0615 5.56602 22.8015 5.45457 22.5021C5.34311 22.2027 5.3224 21.8771 5.395 21.5659L6.76508 15.6205L2.1836 11.6169C1.94128 11.4079 1.76606 11.132 1.6799 10.8238C1.59375 10.5156 1.60051 10.1889 1.69932 9.88454C1.79813 9.58018 1.9846 9.31178 2.23535 9.11298C2.4861 8.91418 2.78996 8.79383 3.10883 8.76704L9.14774 8.24399L11.505 2.62149C11.6281 2.32647 11.8357 2.07446 12.1018 1.89721C12.3678 1.71995 12.6803 1.62537 13 1.62537C13.3197 1.62537 13.6322 1.71995 13.8982 1.89721C14.1643 2.07446 14.3719 2.32647 14.495 2.62149L16.8594 8.24399L22.8963 8.76704C23.2151 8.79383 23.519 8.91418 23.7697 9.11298C24.0205 9.31178 24.207 9.58018 24.3058 9.88454C24.4046 10.1889 24.4113 10.5156 24.3252 10.8238C24.239 11.132 24.0638 11.4079 23.8215 11.6169H23.8164Z" fill="#6C52AC"/>
</svg>
