<svg width="32" height="32" viewBox="0 0 32 32" fill="none" xmlns="http://www.w3.org/2000/svg">
<g clip-path="url(#clip0_29_981)">
<path d="M23.0273 0H17.7884V21.1743C17.7884 23.6972 15.7735 25.7696 13.266 25.7696C10.7585 25.7696 8.74358 23.6972 8.74358 21.1743C8.74358 18.6965 10.7137 16.6691 13.1317 16.579V11.263C7.80328 11.353 3.50475 15.7231 3.50475 21.1743C3.50475 26.6707 7.89283 31.0857 13.3108 31.0857C18.7287 31.0857 23.1168 26.6256 23.1168 21.1743V10.3168C25.0869 11.7585 27.5048 12.6145 30.0571 12.6596V7.34344C26.1168 7.20828 23.0273 3.96455 23.0273 0Z" fill="white"/>
</g>
<defs>
<clipPath id="clip0_29_981">
<rect width="31.0857" height="31.0857" fill="white" transform="translate(0.914276)"/>
</clipPath>
</defs>
</svg>
