<svg width="1078" height="454" viewBox="0 0 1078 454" fill="none" xmlns="http://www.w3.org/2000/svg">
<path d="M267.061 453.73C166.894 454.066 70.0871 417.588 -5.00146 351.213C-85.2413 285.054 -139.453 192.554 -158 90.1529C-158 81.1426 -154.425 72.5011 -148.061 66.1298C-141.698 59.7585 -133.066 56.1793 -124.066 56.1793C-115.066 56.1793 -106.436 59.7585 -100.072 66.1298C-93.7081 72.5011 -90.1332 81.1426 -90.1332 90.1529C-71.4179 174.416 -25.6192 250.208 40.2428 305.915C80.5068 341.044 128.254 366.5 179.841 380.342C231.427 394.183 285.49 396.044 337.904 385.783C372.986 381.141 406.238 367.372 434.347 345.849C398.764 324.311 368.193 295.406 344.68 261.072C321.168 226.738 305.258 187.768 298.018 146.775C291.469 56.1791 357.55 -51.7019 484.949 27.5698C571.271 82.4044 581.392 252.272 530.79 325.584C536.147 325.584 753.44 457.902 1023.72 189.689C1030.09 184.194 1038.22 181.171 1046.64 181.171C1055.05 181.171 1063.18 184.194 1069.56 189.689C1075 195.976 1078 204.017 1078 212.338C1078 220.659 1075 228.701 1069.56 234.988C835.594 460.882 627.232 428.101 524.836 388.167C513.525 382.803 502.213 382.802 490.902 376.842C428.53 429.617 348.657 457.053 267.061 453.73ZM361.122 135.451C368.427 168.282 382.888 199.091 403.471 225.675C424.054 252.258 450.251 273.959 480.187 289.226C484.664 275.489 490.239 262.134 496.856 249.292C539.719 62.1395 352.192 -6.40348 361.122 135.451Z" fill="#00D47E"/>
</svg>
